<mxfile host="app.diagrams.net" agent="Mozilla/5.0 (Macintosh; Intel Mac OS X 10_15_7) AppleWebKit/537.36 (KHTML, like Gecko) Chrome/139.0.0.0 Safari/537.36" version="28.1.2">
  <diagram name="Page-1" id="G6STo_5hHzu1N0kUoyC5">
    <mxGraphModel dx="1634" dy="824" grid="0" gridSize="10" guides="1" tooltips="1" connect="1" arrows="1" fold="1" page="0" pageScale="1" pageWidth="850" pageHeight="1100" math="0" shadow="0">
      <root>
        <mxCell id="0" />
        <mxCell id="1" parent="0" />
        <mxCell id="HQn79kBJnCLvMgGQiG4q-32" style="edgeStyle=orthogonalEdgeStyle;rounded=0;orthogonalLoop=1;jettySize=auto;html=1;exitX=0.5;exitY=1;exitDx=0;exitDy=0;entryX=0.5;entryY=0;entryDx=0;entryDy=0;strokeWidth=2;" edge="1" parent="1" source="HQn79kBJnCLvMgGQiG4q-29" target="HQn79kBJnCLvMgGQiG4q-19">
          <mxGeometry relative="1" as="geometry" />
        </mxCell>
        <mxCell id="HQn79kBJnCLvMgGQiG4q-29" value="" style="rounded=1;whiteSpace=wrap;html=1;strokeWidth=2;fillColor=#dae8fc;strokeColor=#6c8ebf;" vertex="1" parent="1">
          <mxGeometry x="-299" y="261.5" width="120" height="44" as="geometry" />
        </mxCell>
        <mxCell id="HQn79kBJnCLvMgGQiG4q-23" value="" style="rounded=1;whiteSpace=wrap;html=1;strokeWidth=2;fillColor=#dae8fc;strokeColor=#6c8ebf;" vertex="1" parent="1">
          <mxGeometry x="710" y="346.5" width="120" height="60" as="geometry" />
        </mxCell>
        <mxCell id="HQn79kBJnCLvMgGQiG4q-20" style="edgeStyle=orthogonalEdgeStyle;rounded=0;orthogonalLoop=1;jettySize=auto;html=1;exitX=1;exitY=0.5;exitDx=0;exitDy=0;entryX=0;entryY=0.5;entryDx=0;entryDy=0;strokeWidth=2;" edge="1" parent="1" source="HQn79kBJnCLvMgGQiG4q-19" target="HQn79kBJnCLvMgGQiG4q-3">
          <mxGeometry relative="1" as="geometry" />
        </mxCell>
        <mxCell id="HQn79kBJnCLvMgGQiG4q-19" value="" style="rounded=1;whiteSpace=wrap;html=1;strokeWidth=2;fillColor=#dae8fc;strokeColor=#6c8ebf;" vertex="1" parent="1">
          <mxGeometry x="-303" y="343" width="128" height="67" as="geometry" />
        </mxCell>
        <mxCell id="HQn79kBJnCLvMgGQiG4q-22" style="edgeStyle=orthogonalEdgeStyle;rounded=0;orthogonalLoop=1;jettySize=auto;html=1;exitX=1;exitY=0.5;exitDx=0;exitDy=0;entryX=0;entryY=0.5;entryDx=0;entryDy=0;strokeWidth=2;" edge="1" parent="1" source="HQn79kBJnCLvMgGQiG4q-18" target="HQn79kBJnCLvMgGQiG4q-13">
          <mxGeometry relative="1" as="geometry" />
        </mxCell>
        <mxCell id="HQn79kBJnCLvMgGQiG4q-35" value="&lt;font style=&quot;font-size: 16px;&quot;&gt;否&lt;/font&gt;" style="edgeLabel;html=1;align=center;verticalAlign=middle;resizable=0;points=[];" vertex="1" connectable="0" parent="HQn79kBJnCLvMgGQiG4q-22">
          <mxGeometry x="-0.2852" relative="1" as="geometry">
            <mxPoint as="offset" />
          </mxGeometry>
        </mxCell>
        <mxCell id="HQn79kBJnCLvMgGQiG4q-18" value="" style="rounded=1;whiteSpace=wrap;html=1;strokeWidth=2;dashed=1;fillColor=#dae8fc;strokeColor=#6c8ebf;" vertex="1" parent="1">
          <mxGeometry x="56" y="346.5" width="120" height="60" as="geometry" />
        </mxCell>
        <mxCell id="HQn79kBJnCLvMgGQiG4q-24" style="edgeStyle=orthogonalEdgeStyle;rounded=0;orthogonalLoop=1;jettySize=auto;html=1;exitX=1;exitY=0.5;exitDx=0;exitDy=0;entryX=0;entryY=0.5;entryDx=0;entryDy=0;strokeWidth=2;" edge="1" parent="1" source="HQn79kBJnCLvMgGQiG4q-13" target="HQn79kBJnCLvMgGQiG4q-23">
          <mxGeometry relative="1" as="geometry" />
        </mxCell>
        <mxCell id="HQn79kBJnCLvMgGQiG4q-13" value="" style="rounded=1;whiteSpace=wrap;html=1;fillColor=#dae8fc;strokeColor=#6c8ebf;strokeWidth=2;" vertex="1" parent="1">
          <mxGeometry x="243" y="295.5" width="425" height="162" as="geometry" />
        </mxCell>
        <mxCell id="HQn79kBJnCLvMgGQiG4q-1" value="" style="shape=image;verticalLabelPosition=bottom;labelBackgroundColor=default;verticalAlign=top;aspect=fixed;imageAspect=0;image=data:image/png,iVBORw0KGgoAAAANSUhEUgAAAMgAAADICAYAAACtWK6eAAAAAXNSR0IArs4c6QAAAERlWElmTU0AKgAAAAgAAYdpAAQAAAABAAAAGgAAAAAAA6ABAAMAAAABAAEAAKACAAQAAAABAAAAyKADAAQAAAABAAAAyAAAAACbWz2VAAAPrElEQVR4Ae1dXXrUuBIlzCwk78AaUFYBj8NKaFYC9w1WMcoe4PlyV5JbpyMRt9tul2TJ+jv+vsS2LJWqTtVRSXZ3+9UrbkSACBABIkAEiAARIAJEgAgQASJABIgAESACRIAIEAEiQASIABEgAkSACBABIkAEiAARIAJEgAgQASJABBpG4OPHjwZ/DZvQvep33VtY0EAX/AYqPD09vZ+oci6bnE8PLU7u7u4efeH3799P/pj7YxEgQRLi7bOBkOGziDUJRUOUdaSxQhibWDbFrSBAgqwAoy32WcJlCKNtt7eekOWLyCBZ9gK50Z4E2QBo7TKIkSlTrHW5Wg6ycBq2Cs+uCyRIIHw1EWOuOokyR2T/OQmixLBmYkxNcFOvV8woU1Tij0mQDexaIcbcDBJljkjc+V9xzcZo5cjxr1h736DFRnQ27969u/v586dtUP8qVCZBVtwg5DjJIvzryuWWikmSHd4iQRbAc+TAs4xeNpIk0pNcg8yA+/DhA6ZUZlbczamsTR74oFHvThLEYdXqYlzv6peavB38gsXW0eutCqNcl/VG15lj6kc84MSAMC3j8TICJIjg4qZVywh1WooBgSTZdu7wBMGCXGAy21D1VwOZpD+r0lo09BoE5GCQvLI/fvx4SBtW/Ugb9jYvyfEniO/5MPEPFlcHQxIEc2/JHF+v0Bi3gM9JVnw/5BoEC9QVPIYtxlQTA8ewAKwYPhxBMLVawWL4Yq7HrkNgOIIwCK6DYFLCH5GYgIHDoQjC7DHz/sIpB5BLUIYiCJ1/6fyVM2aRCTDDEITZY+L1jUMOJC8ADUMQOv3F6YojZhEH0hAEYfZQUGJWhQPKMyBDEITOnkW/7pRZRHDqniCSPYwuHliLCFwj0D1BxGRzbTZLNAgw8w6QQcTJ7zXBwDqLCJjF0oEKmUEGcnaMqaNPUbsmCO9exVDiss3o06yuCcLp1WWwR56ZyHZdNOuaIOKhoZ2bKkJHnmb1TpBUMUI5gyLQLUFGHvUGjeUsZndLkCxojSvUjGp6zwQZ1qmpg3nkmx09EyR1nFDegAiQIAM6nSbrEeiWICNPC/TuV9c06pqdVeyWIJ35ieYUQoAEKQQ8u20DARKkDT+V1tKWVqBU/90SRF4S81gKVPbbDwLdEqQfF5W3ZOTBpmeC2PKhRQ1aR6BngrTuG+pfAQIkSAVOaEAF24COWVTsliB81XGWeBlOaLcEcZ60w3k0g8EjDza9EyRDuIwlEu9UH8viS2u7Jsjozr10Nc9iEOj+LbfyDvSnGGDY5hkBeQNu9zFyy9ddZxBnuL0FAK/dRGB47LonCKdZNwlw8+LIT9A9MEOkT06zvLvD9qNPr4BW9xnEhYR1e+70CBAzwWoIgnCapWeFr8np1TMSQ0yxYKpMs/6VncExt9sIYECRh4On27XGuDpEBoErmUXGCOjUVg6TQQAcs8h2+DB7XGI0TAaB2cwil85fOuPU6hKVoQjiPnRnLyHgmUeAA4hH4mU/FEFgNoPgxfnzI2aPOSKD3Oadmo0sQpJMEXk+JibXmKDkr+Xivkt//vxp3717hxsUpm9LddaBHMwey1gNdRdrDgHvaj1POUmOeWS8nA+3BnkxnesRwcKSHNOIuD4emiBuPfJwDcsYJVx3bPt5yDXIFBZZj/wecT3i1h3fpljw+BqB4QkCSEZbtHNRfk2EtRISxCEzCkmEHA8ytfy2FhAsv0Rg6LtYl1A8n+HtuPLyHXzyt7fNyheghl1vxTqTBFlBrrNbwCTHip+3ioe+i3ULHIy2mKvfqtPCNdjAzBHvKa5BbmDX+LoEH6n5xPXGDQcrLnGKpQAJVWRtcpK1yWdl9aLVkDX4ADCNC0iQQBxrJgqJEehMRXUSRAHSUpXKiHL+hDI+GbCkK8viESBB4rE7T7vQvNDUy6JvlzXOxzjnlhYBEiQRnnh+IqLwDOU99vKXY/vzXRZmixzwXsskQa4xSVKCKRgE7SSMhQxkCexJCqBw7EaCHIi3yzLo0Sx0a30ZieCR4J4IEAEiQASIABEgAkSACBABIkAEiAARIAJEgAgQASJABIjALgT4HGQDvo1nF2ut7dIFPt9YQqXuMhLE+ccTYfK5KnOw6+xaf/Ik/XHtmpSvtiMhb6CmvDQsQWaEMEq8WqzGT/ru8NpQBAEpCmaIHW6KakpiRMF22WgIgkyIYS7N7/KMxEjo1q4JIsQ4TTJGQtjqFCVrFfzmla1Tuza16pIgoxFDQo8/65OJf10RZEBinL8rIlnjlCk+hhfbBUEGW2P4oOVawyORcd80QQYlBsKBU6qMpJiKbpYgI06nnOOykgODziRApscotvg30o2A5ggycNZAbCYlxwRLyDb4F7hhmvfY8xqoKYI4h/b4y+uauExCjgkpjKbTkDruxyXwWjcb0q7mus0QRBw71DONWdDsJsfR+IEsPWSWJgjS2asIZrG/ebqLHEcTY2ZN81OwqgmSczowc2S1p7FPx2vCruWpV7UEcQ4edb1xJmzMNKUmYsxHnRh75jKOPq/y/SAkx5/f3D2FBMQEt/uQdgfWNXijMN67cmCfu7qqLoNMnLzLsMYbB687BLeWbmI08ymAqghCcjzTWl6ZFuSXxOSwfnCRKdGjP8be/c4wDg3+7d1amHL9vdfIVO1JjmckETQhmCYgx3k0R58hzy/QL9rs+ToB2ooc9HuWBXm1bUEjVU7l5VbuU075rcgOyR57yOGImOShnuhhBF8TSxbRpdrvsVSRQZyjW4nhbHqGZI9YcqCP1CO2yzxWdDpjE0oUqY+7ldUM1lMHF1cq1tFTI3o4DglcwQyjdegt8MMWxpE+Db4xcYTfXx/RyVofkUCuiRumPJQcIB/elR6yxtgDJjIUporoN0COQTwE1D+karHnIG4U/HqIlZV3Epg9TmKO0ZokskGMb9r6KetFvGcez0kepd3vlHrskVUsg4TOU/cY2Uvb0IzryGFL2o9sEpJJQrNjbtuKZBCXSv/JbVwr8jH90ej65s0b9bqjBnJ4m0IzSU1P2w/PIKGjoAe51712dHWDigoGyDxqvaFSSCqFZJKaZheHE0SMf68FdYR6CByNndqgceRQydT0m7KOs9VqZIYMCBp5sXUOJYgz2sQq21u71NmjZnJ432ltxoAg8VI8Vg4liHYU9GBy/4yAFjdtNiqJq+j456MtW3po7d6Ss+f6YQSpJWXuASt1W01Aa0dR7cic2oYYeRq7Y+TmaHMYQWoYDXIAeIBMo+mjpaCDPUpC4+Ghyn4NRjF1DiEIs8e1a5QBovq0rFbWtRblShyhbTkNdD0fQhBmD50z5rUCRk87b9vLeenYyU4QZo/VUNUEtVltPbkgo7FG1qRFHYfKzFd0mpWdIHW4oj4tNEEto+fmMyNlkNUHgGikwaC04lkJgilC6RRZGuCV/u1K+bzYzAs6PLcKm4yiTpYqWQkiGhczLAtaFQp1i90KNdOpJBnwUVezTK2sBGH2WHZq7UGxrHW2UrslWTPV3JIRez0bQQLuwMTq3nU7JX62axAqMC4bQcQ2U4F9VKEPBIrFUjaCcHq1OzI3g6KHqVrtd7KyEWR3ePQtwKYwr+TcPIX+LcjIQhA+HEzieptECoXsQiALQXZpxMZDIVD7zYgsBOH647AYN4f1NGhHyQmiHBEGhVtvdu2LV70lmzXNZo2CFZITRGyp2uCCWGfpeoQBqeTduhwEyRIInQk1Snussl6z1WqfjicnCG89bsdqSoxqD7BbaGizX8nPmyUniABiboHCa3oEZGqh+W3bot+X0FuzWNMsllZUmIMgFZnXtiq9L9Q1mVQ5SGRzdFKCaFNmNmvaEWwCVLVbdVucZkmsnMQus2Vb6etJCdKCwaUB9/1rBxPlCNryNMtDsrgvuf6AQqkJsmgkC+MR0E6zJIuof9g6Xps0LZE9NFlPOTikUWpFCgmyAkzuYk2ATHSwk+PVQzdtWb1eywWt7aWzB/AiQcpFjdF2rR1JEXjaqZu279T1tCTW2pxav7m8pAQRB23+CsdcgZHPtcHspllWg5X4oNqpFsihzR4aW4+ok5QgRyjcUx8hwRIyosortasjCQYDrb2wtYbpFWKNBGmEccgiASTBXa1TLaY5cqhJWws5gB8JUjaKgm7PhgQORusaSBJKjoBB4BDPkSCHwLzeiXba4SVIAKneZ4j6kI3pFoLUtz9yD4KKDurMIbrZkEHgCFtIkCNQvt2HuX358mrgVAuNMfcHSU6XkvKeOXJ8DulFyF/dj8glfcvt27dv/xFA7kNAYd1Xr0Lf6hr61liHMd5Bfic+MmifC3dkK3kb739Fvonp49evX/+JaZerTdIMUuMIkAu4lHJDp1no201FbIge6Ad/ObIJiIHpnMgPmVLN1T/LmBeWPL9L2TlA2glQSnWakoXFacz8W4LyaYehuDP2GNMv+nT+9tMos0OPeVOrfXf8vGHq86QEgXI7HZbavqbkSVAE+2MSpGavsSDpRIbFMdY86APHbsMg+F6OjS/ItK+CJMEO2QJDwMSdCz+qbFXn9QkCsVkEIjrFvThJkhMEzmIWAQpxm5DkAaN2TGuSJAa1222SLtJ9V7NU7Yu5VyCwJ/tiLVE59ljzPAgMVgGFr1J04Z70Nq+3KPI2pG8++v4+9LbvFDCH/aME4v+k3EyvlTwGcWWN9Un0+41bubjdLPrcK3W6R/0St4CzEARGkyRK1y9XwzOLRwTT8uXbpWg3wR+V72+3yHoVWeOTZLdv015iSLJn4Jj2HXKcjSBQYuIkE6IU654RuN87YgJ/yEBgiURzMK5nYkjW+ALCLvUdQZLzw07YtSQvRxmAy751unjMjhumJVhXpOoIfoCsPeucLV2gs9TBZ6rsVl1/HQ8Y5dj48619alxu9XcIQbwCJIpHQr/PFQwJyWJhjdPzfIzz0K1WkhxKEA8aieKR0O1zkcT3Lv4w7tjvkWXwMBCbkT8rf+dNdHl0h0FZwrW5uauRJEUI4lEiUTwS23sJzOjnI9vS66kRQZKsuLwuCQ3m1/h4BZwvf19EF1tSn5r7zrluqMluiYcH0cdqdcqNy99aRXLWcwu6P6C4lG/Qp0v152OcD7ZZ2IvBI2TR2zpGsFf8bpR2aOspxV1WKzrFulRFd7Y0X/YtHZn86XRvpicVHluvkwTHoxwnn997+a3s4WfxJ+5ubW1ZP6/VHEG20Ep5fULGlGLPn5BNKrBTYRqSuOx6ygUBCZILWcpNgsAWSbCGTdLRipCswlf6ZDERCEZAiHKSKdf0axRZp1bBCrIBEagBgVzT3hpsow5EgAgQASJABIgAESACRIAIEAEiQASIABEgAkSACBABIkAEiAARIAJEgAgQASJABOpH4P+qSe0fRjaa0gAAAABJRU5ErkJggg==;" vertex="1" parent="1">
          <mxGeometry x="-298" y="350" width="53" height="53" as="geometry" />
        </mxCell>
        <mxCell id="HQn79kBJnCLvMgGQiG4q-2" value="&lt;font style=&quot;font-size: 16px;&quot;&gt;用户查询&lt;/font&gt;" style="text;html=1;align=center;verticalAlign=middle;whiteSpace=wrap;rounded=0;" vertex="1" parent="1">
          <mxGeometry x="-249" y="361.5" width="69" height="30" as="geometry" />
        </mxCell>
        <mxCell id="HQn79kBJnCLvMgGQiG4q-21" style="edgeStyle=orthogonalEdgeStyle;rounded=0;orthogonalLoop=1;jettySize=auto;html=1;exitX=1;exitY=0.5;exitDx=0;exitDy=0;entryX=0;entryY=0.5;entryDx=0;entryDy=0;strokeWidth=2;" edge="1" parent="1" source="HQn79kBJnCLvMgGQiG4q-3" target="HQn79kBJnCLvMgGQiG4q-18">
          <mxGeometry relative="1" as="geometry" />
        </mxCell>
        <mxCell id="HQn79kBJnCLvMgGQiG4q-25" value="&lt;font style=&quot;font-size: 16px;&quot;&gt;是&lt;/font&gt;" style="edgeLabel;html=1;align=center;verticalAlign=middle;resizable=0;points=[];" vertex="1" connectable="0" parent="HQn79kBJnCLvMgGQiG4q-21">
          <mxGeometry x="0.0202" y="1" relative="1" as="geometry">
            <mxPoint x="1" as="offset" />
          </mxGeometry>
        </mxCell>
        <mxCell id="HQn79kBJnCLvMgGQiG4q-30" style="edgeStyle=orthogonalEdgeStyle;rounded=0;orthogonalLoop=1;jettySize=auto;html=1;exitX=0.5;exitY=0;exitDx=0;exitDy=0;entryX=1;entryY=0.5;entryDx=0;entryDy=0;strokeWidth=2;" edge="1" parent="1" source="HQn79kBJnCLvMgGQiG4q-3" target="HQn79kBJnCLvMgGQiG4q-26">
          <mxGeometry relative="1" as="geometry" />
        </mxCell>
        <mxCell id="HQn79kBJnCLvMgGQiG4q-33" value="&lt;font style=&quot;font-size: 16px;&quot;&gt;否&lt;/font&gt;" style="edgeLabel;html=1;align=center;verticalAlign=middle;resizable=0;points=[];" vertex="1" connectable="0" parent="HQn79kBJnCLvMgGQiG4q-30">
          <mxGeometry x="-0.0469" relative="1" as="geometry">
            <mxPoint as="offset" />
          </mxGeometry>
        </mxCell>
        <mxCell id="HQn79kBJnCLvMgGQiG4q-3" value="" style="rhombus;whiteSpace=wrap;html=1;strokeWidth=2;fillColor=#dae8fc;strokeColor=#6c8ebf;" vertex="1" parent="1">
          <mxGeometry x="-114" y="322.75" width="105" height="107.5" as="geometry" />
        </mxCell>
        <mxCell id="HQn79kBJnCLvMgGQiG4q-4" value="&lt;span style=&quot;font-size: 16px;&quot;&gt;领域路由&lt;/span&gt;" style="text;html=1;align=center;verticalAlign=middle;whiteSpace=wrap;rounded=0;" vertex="1" parent="1">
          <mxGeometry x="-96" y="361.5" width="69" height="30" as="geometry" />
        </mxCell>
        <mxCell id="HQn79kBJnCLvMgGQiG4q-6" value="&lt;span style=&quot;font-size: 16px;&quot;&gt;用户需求澄清&lt;/span&gt;" style="text;html=1;align=center;verticalAlign=middle;whiteSpace=wrap;rounded=0;" vertex="1" parent="1">
          <mxGeometry x="66" y="361.5" width="100" height="30" as="geometry" />
        </mxCell>
        <mxCell id="HQn79kBJnCLvMgGQiG4q-8" value="&lt;font style=&quot;font-size: 24px;&quot;&gt;&lt;b&gt;翻译层&lt;/b&gt;&lt;/font&gt;" style="text;html=1;align=center;verticalAlign=middle;whiteSpace=wrap;rounded=0;" vertex="1" parent="1">
          <mxGeometry x="284" y="299.5" width="104" height="24.25" as="geometry" />
        </mxCell>
        <mxCell id="HQn79kBJnCLvMgGQiG4q-9" value="&lt;font style=&quot;font-size: 16px;&quot;&gt;处理后的查询&lt;/font&gt;" style="text;html=1;align=center;verticalAlign=middle;whiteSpace=wrap;rounded=0;" vertex="1" parent="1">
          <mxGeometry x="723" y="361.5" width="100" height="30" as="geometry" />
        </mxCell>
        <mxCell id="HQn79kBJnCLvMgGQiG4q-10" value="&lt;font style=&quot;font-size: 16px;&quot;&gt;输入：中文查询 -&amp;gt; 目标：papers -&amp;gt; 输出：英文查询&lt;/font&gt;" style="text;html=1;align=center;verticalAlign=middle;whiteSpace=wrap;rounded=0;" vertex="1" parent="1">
          <mxGeometry x="249" y="354" width="378" height="29" as="geometry" />
        </mxCell>
        <mxCell id="HQn79kBJnCLvMgGQiG4q-11" value="&lt;span style=&quot;font-size: 16px;&quot;&gt;输入：中文查询 -&amp;gt; 目标：blogs -&amp;gt; 输出：中英双语查询对&lt;/span&gt;" style="text;html=1;align=center;verticalAlign=middle;whiteSpace=wrap;rounded=0;" vertex="1" parent="1">
          <mxGeometry x="249" y="386" width="413" height="29" as="geometry" />
        </mxCell>
        <mxCell id="HQn79kBJnCLvMgGQiG4q-12" value="&lt;span style=&quot;font-size: 16px;&quot;&gt;输入：英文查询 -&amp;gt; 目标：blogs -&amp;gt; 输出：中英双语查询对&lt;/span&gt;" style="text;html=1;align=center;verticalAlign=middle;whiteSpace=wrap;rounded=0;" vertex="1" parent="1">
          <mxGeometry x="249" y="419" width="413" height="29" as="geometry" />
        </mxCell>
        <mxCell id="HQn79kBJnCLvMgGQiG4q-14" value="" style="shape=image;verticalLabelPosition=bottom;labelBackgroundColor=default;verticalAlign=top;aspect=fixed;imageAspect=0;image=data:image/png,iVBORw0KGgoAAAANSUhEUgAAAwwAAACmCAYAAAB3EAhuAAAAAXNSR0IArs4c6QAAAERlWElmTU0AKgAAAAgAAYdpAAQAAAABAAAAGgAAAAAAA6ABAAMAAAABAAEAAKACAAQAAAABAAADDKADAAQAAAABAAAApgAAAADDHaAIAABAAElEQVR4AexdB4BdRdW+c+/b3Wx6AiQB/ElUqqIkIYJU0wRCJ2GzERSpoQjSVQQxVKWIdCEgRBBNskAoCoJJCFVKCogoRYFgoZPedt+79/++M3fee7v7yr27b3ff28zs3nennJk58912zpwpytmI3Jknrd0lUP4Fjuvs4fjOQMdRYesDJwgcORihTLSfDxxDgEzZTgc/QrHzlR9cfO3tff6RnWz9FgGLgEXAImARsAhYBCwCFoFKQ8BIvpXGd2x+zzxp1eTAUb9FxipmpoKQpS8ggrHGaVgCITJxOBuaEDWTrFomMKzUGjcIDoTSsCCrBOu1CFgELAIWAYuARcAiYBGwCFQUAhuFwnDqqWu28FLOm9ASesnVoeCfbT0ACkb4T189RJg4lTY5NNcYTHpGkzC5DazBh8nq1A6/+lX/ZSbFni0CFgGLgEXAImARsAhYBCwClYSAW0nMtpVXr9E5z0lBWaCSwCOgTUDbBagCBBJHjzkyygJioDgwnBm2REVB56GHBzUOHpn8Ot4Z7G3wLmIZ1lkELAIWAYuARcAiYBGwCFgEKhEB0xVeibxH4vm0E1d9yQ3UK5DrE5Tt6cIhRFQTRGHy0/GSLBQi/OsfE5me3BCYDJkU7TOWCFORHvOUBP3wm37T57WW5DZsEbAIWAQsAhYBi4BFwCJgESh3BLq9hUH56pewBiTY40/tiEcQqD/BInAD5XoeKvzLthCIRQHxYokI6WhVkCMM69JQIsJyUJHgYcL6nADFteV+I1j+LAIWAYuARcAiYBGwCFgELAK5EKD83G3dacetOUip4CFK8OlOf8dJBqngK6la/8PEhsRbaPwmmcnNIRxZxBocA1NYTitLQghhy/jscBBMvOmuvnO6Ldi2YRYBi4BFwCJgEbAIWAQsAt0SgW5rYZhWF1QHgf8LHz3+Iv+zt5/2BaVuvHFG39c5EdkPgp+IspC2CMAD4rShQAczBgMz1yFNgCIlL8rlHIYW8VBMHB5C47i/OO20oKZb3kW2URYBi4BFwCJgEbAIWAQsAt0WgW6rMHzaZ9XpEOG3wSHCPIYhUaD/xEs2XWSu5kere0+HMP+qngBtJkJjgBJoeaQ1hVARoOKRfVAZEYUEZ85rSKeFYVOPjg8+n/ps9Tkmzp4tAhYBi4BFwCJgEbAIWAQsApWAgMjTlcBoHB5P+s6qQVVVzltQEvrqfLqXHyOETrrhzj63Zpd16ndWjYVuMM/ENZvQbIYUMVGUBfzAmWVWzVCmlmEhyknnrvFdd7tb7ur5X0NjzxYBi4BFwCJgEbAIWAQsAhaBckagW1oYElXqclgN+qYtBNoy8NcPVve+veXFuPHuPvMxkXmOWAE45IjDlswBS4GZxMx0Ey8ToiVC02oLAtONaxHPvMJD0Mv1U1cYKnu2CFgELAIWAYuARcAiYBGwCJQ7At1OYcBE5xEQ8o+hoI85CnJQoIex4PSGBpXKdUECP3UOlIANTCNteqhRuEqSz7kIMuSIw46yhh6JEoA84RAkDnvSR0hn4sNymBdlH3nKlJW75+LDxlkELAIWAYuARcAiYBGwCFgEyg2BbqcwQHi/DtYFl/MSFBUFHI7v3nfjjD4L8oH/q9/1fxsWgGuMUpCmY14exuIg8xpgPUifkUgNwzhDb9JbxSMCNL5S10+bFnQ77E1z7dkiYBGwCFgELAIWAYuARaD7INCthNZTj1pVD6F/L1oXeFCWx7FeOU3nFrtkqnE9hzG9n1EGaC0IJzXjrC0LLc/aomDyhPWlaTPxOl9WeOf331x1TDGebLpFwCJgEbAIWAQsAhYBi4BFoKsR6DYKw5l1QS0E/isplJshQnregHPNjXf3f6cY0Dc3DFqNIUznZSsGRsDPf0apopSEigUVFfybw3jTYaFlOqwUSXX51LrP+hXjy6ZbBCwCFgGLgEXAImARsAhYBLoSgW6jMDT2WHuu7/tb4QCe4aRjP/hfL7Xm8qgAT/99n7scx30xLeAjo1YgfJx5aEuBDz8PiUN9tCzQMZ31Iyk86Nfp2vqQld/xByk3caHOaX8tAhYBi4BFwCJgEbAIWAQsAuWJQLdQGE47cu3nIKr/MC3ohz35geP+6Oq7h6yJDr3CPmup00O9ILPpmpmTEJoMMDtC/sycB1EKRDEwQ5aoJFBZICN6aBOVCcNfOn/gnHZy3crtovNnKS0CFgGLgEXAImARsAhYBCwCnYtAt1AYUiqFoUhBz7RlgcK5E7xwy+96/TYunLfP6vc88tzDfNqqEAr/oVVBLAtiRUil0zFhAtQ+lAhOtWbdOgwlBpaIJAuSI12e5KdC4Vdh2aZrWZd1FgGLgEXAImARsAhYBCwCFoFyRIBjdyranfLtlbtDln+WjaC4Lg4d/RDsd5s+s98LOiLe70l1n2yZChJvQMDvxZxmYzbWQCfWAvHpH9FP4M3e5y0rGfHN9bJ0fmHXRXpwthN4b0K5UAkvkc4KVcOR5Z5wTnjpaM7n1g3NimOq0OaNy5TruqnMdc9EAzRHeS3y+2BPovCDdjQBkzevvbnPPzLcWJ9FwCJgEbAIWAQsAhYBi0B3RiAjOFZkKwN1yhGrXoScO0rYDyV3CNR3T5/Z96j2NOmEw5ddAOH4kuwyjGLgKFoQxGggZ6NQpBUBic0oEMynHCoGYULWSefNTqByoRUTkqWVDSHR8Zm4MEz9waTzzPp4xo+uM6RzhQiahT6LNUS8IV2YDAUmLMCUQ04y/kAFz3sq+O41N/V9U6fYX4uARcAiYBGwCFgELAIWge6KQPOu7wpr5cnfWnU0RPdRIl9TJsZ8ARW4a6od70ftbUpT7+VXY9Wkd2UIEoYWcXiR3tgBg4ioAeBQiOPBrnnpnoegTWE7MzRJmJKw46RkonR6sjTysEwqGb6PNBwcskQ6FCYHw4ZeolASmJA8opxoMrISZkE651sYDhAvaWE+syEdTRRMyOQDDwyEBzefk/pAJyyxfInSZatAfd333WfOPGntlkixziJgEbAIWAQsAhYBi4BFoBsjULEKw7HHftwncNXl2ZOKKfRC9L78xpm9/tfeazZjxufXu45/LhUACu5amNdnCvFakUAa/kyYKyTJYdLDuQomXZQJ6b2HBB6WK3MctBwu5aRCxUHXp5UPKhakaz252sj45FEL/TxrZYJSfpgugj/L0n/UC0SxwFn8tETgT/xhJilDmyd0PPUYliPlI5/jbIY23EJy6ywCFgGLgEXAImARsAhYBLovAhWrMFStrT0fAuwQEWwh7IYC8LuNPfpcU6rLdfv9g+6FAvCkSMwQlFN+UoR6EZezFAUzydnEU8DXB9UJ/umwj/wU+o1iYcqVbnwoGUahMApGWlGhJC/SPC0QtGaEYXNGLL0U+rWFISRHHCrnvz7ooV8UCCo/DEBRCBUKsUwwHGbQygEC+l/ysno66jho2YFnnrJ6P4mwPxYBi4BFwCJgEbAIWAQsAt0SgYpUGKbWL/8ixNUzjGArAi0CEMzPmTFDrS/llQqC5BkomSI1qqSwnn0wLnMEAYcVpdDxjt588kNrAY5mNCxHpG4oDuavhUXCpCMj2yS/9KUFePgljXWw/tBlFAytOKTpNTmzCCta3CcN8kOBkeJYIlopcfDTm44P/emqQgjC8q6dOjWoClmwJ4uARcAiYBGwCFgELAIWgW6GQEUqDK7yfoHrUEMBluPytWDsLLhtdv/7Sn19XF+tg9CfonVAS9Coz/xB0KeQbv5Mejpshh+BgkqADGOCQkGhvNkhknm61HSaDEuiUB8qIsZSYRSD9Dkc+mQUgYyiEFoczLwGKYvl6SrCaiWsLTSwLtBOAXoepBMa/IhiIvmJsC431C+26+Wu+T5jrbMIWAQsAhYBi4BFwCJgEeh+CFScwnDilNXjILceIn3+ItHiomC0kJtMndERl8d3/WsgH1dBghaBX4YLhSqCEeC1VJ1JTwvyFLTxlx5iJEoDrA44yxEqHOjaRxFUPrSFwigckptpoOaRKdfkZ5yR6uEPFQejMLQ+hwoESwuVBpM9XU6ogOk6qTQgjwxAMgpEpk5ZLIrlKOfCc05aNQiE1lkELAIWAYuARcAiYBGwCHQzBCpKYairCzxIsNdq4RZiLIVZSLwQpG+/dc6AV0p9bY469N0JEPb39ynIQxjX/e+QkDmMJytsBHXywqMlXcv4bAWCioOPqdpoRfovPaQJygL/qCggEY4/ug4pM7RgGEWCVgx9kBZO8uAUZktnp1LAgzQaQl0sq2ERYRWGbzNUicR6BSXkZWbqEqT1nb5JV/0MIessAhYBi4BFwCJgEbAIWAS6GQIVpTAMUKtPgrKwY1rw1ZLwclXlXlDq6zJ16sIq1PNLCv8ikOPMVZh4tP4Le/zDFEPXPDaT3wjiRrHgPAcqJSJ9Sz1QE0Ryh5LC+qCcyB/iGN9SQUgrIKTF4bAsnDUtwxKU8rWyFVoNZNhRqHRxfBEdghzmRd2Dqo/WKML8LJttlBPPOp1BNOHoM09co/fDQNg6i4BFwCJgEbAIWAQsAhaB7oFA1j6/5d2gk49YPiCVDC4il9LjzrP0qKuLbvt9309Kzf26Dzc5FQL9dlo2Zrc7RWcKyCIy6zMTxel03eVufl2K1mG6zsec4mRDNezgYJIRKYqBSOIMGHqeQQRLAtONw8Zp4qUiQZfeOC7kT7IwDz2B5oMbxxl+SC81hEWK3M+CwBCr5kHFQvkoASqloQ2Yj3kknSeqRGFZqMBX/vXIuQdSwpJZqHUWAYuARcAiYBGwCFgELAKVjEDFWBiSSXURpNNNZPhP2MsOqfZ1d2D/m0p9Ab510BubQni+MLP8Kbvbjb1A+83YHe78gEQ5qMDw0D3+mUnSuscfqyeJeM2eeW7UlrEU6F5/ivP6L01HywJpQ8uCWBlYh1l9CX4xBSCf8AA6noWeNNoUIKmM06I/SodiwDSxllBrSVsKdM0ZOuRBupAgNz1SpilXqmUcNQg5djv95DVHktQ6i4BFwCJgEbAIWAQsAhaB7oFARSgMJ9at+hLmK5ysLQvsBWefNwRZlTpr+nTVVOpL4TnepVAE+rMOHuzRlyNUCExYNlOjME/BXhQALVCbIUN6mBEE/DB/WuAPy9XCvt4tmoJ4Jl8ozINOLAtME+UgVAzYgc+DgjsOKgPaqxUGiv3CN84s0+xILRYJnST0RFFcGMdIo0wIAVUcpLEqKRJhKgZpBSHMTuVJKxJCd8Upp3zU2yTZs0XAImARsAhYBCwCFgGLQGUjUBFDkiB4/xIwg1ctmFKIhf+RO+4b9Gip4f/2gW/vhL0XTmC53EiNvfBaeG5ZE4Xz0IkCAz8EZ+1CURxhX8b0mLAwniFJR1MJCrPipBUj9vNDOIdKp4V2Cv+aiEOD6Pgrw4tYLHmFVM+Vi3Q8hiCRdfy5+KNTSNRxpBEqyS/CvqTrcmWSM7yGJ4aVSzUk5FPK1fVI1SEhdCbHDZwtqpye56O481indRYBi4BFwCJgEbAIWAQsApWNQNlbGI6b9NlBgHgfEX0p7dKpoAnrJZ2lA6X9DZzktRC9Ifdqq4EoAexiT3ezaz+FZ20VwJnWhRwWBp2ul0rlMCS2QQ6UxaFM6fwsS5QhCvRUOjSd4cEI9KSio+hORUHy4Jdn4ZM9/aI26HKyd442dbFsUQtCLHU8q0R5iNN1SQ3aTzrWFbIuZyoILeM0mfAHFs48bSo317POImARsAhYBCwCFgGLgEWg0hEoawsDllGtdoPl2KSNAjBE4bAHXwX+DXfcN/iNUoN/5IGvHw7BfrSWqFE65OL0MJ6syowFQIRnkokETgLjoXRN0Vw70TeyJh2bhEw+CuoZ3c3EMz+tA1QCxFLB4pS2HAADBLQKQTrmodVAJk8jwDyyTwLSXFeXrZUB0pJPlAMlR6E8KkNM48To7CaEqoWUyXi2VywNtDgwzGLgpE6e8ScTo52gxnW8axB1CNOtswhYBCwCFgGLgEXAImARqFwEMlJqGbahb/DZ9yHIbkNhVgRg8AiR9GMvUXVxqdk9evQ7PVDPVVQGjMXAl+VO2Wtv/ujPWABMD77kEQGeaVnpFNrDsClBWgJaPe+AihAPxGZZINJzIiDQCx1q1eoH6VC+SO6MEzwQ1uVoWtSJdC3EkxeShzyJIoEWiDVEt0WUMJH8aUVAmcJLWB/9nOiMVrCmtKM1AmH+pbUGqYf5yQsp1cGnTV0Ny5B1FgGLgEXAImARsAhYBCwClYxA2SoMJx22ahB6138CCTQjXEP4hgB7wfSGgStKDfqGXuvOhmA9jOIxlQKjGFApMKscURimEqGFfPr1QR6FzzBs4rUioAV0KUOUB/bqs4c+U4+pz5RryuNZ0oyAL4J/KOizLvKjpXOI7iEPEqfTqDQIX8I3FY3wENnfqAEU8BmvEdVZqDyESgKVDETqg0UYwtAvac0VB5bFInFzXTttWlDWVqxS30e2PIuARcAiYBGwCFgELALdDYGyVRhSbvJyCOd9KRSn+7NV8PJWwwfdXuqLMOWbr2+Bus7TSkJmrgEFaemNhwRs/tB1LwK2CPehYpEW9Klc8AgVg3QehGV5VFosqHBQAcChpfT85enef02nlQqWzVJNXi3sG8VB4xSmU4YnHSV3yaWVCKZSedE8szwqBDqNSXTa0qDPWkEIlQdaFISeZYTEOoPOI2mkQRpPjrPD8g/XnCo++2MRsAhYBCwCFgGLgEXAIlCRCGixrsxYnzpx+UgsmfoShFsoNBSK4RMBNRh955zNnyw1u1P2/+vdKPPbph4Z4o8IEa55DoVjGftPYT+UrPVcgEx6S75kyE5WOcr1QhItbLNYzhsw9RkpW+YVCCVKYCLpeBZCQIKMeu6BmeOgL6PJJ/WClnnEH0rvSnk6jvMW4GhFcOE3+WhzcMN6dH0hR6IEwY+VkpgseOAscyNQFBUVVsE0ccbP+pWzwm8Ktrnhzj4fh6n2ZBGwCFgELAIWAYuARcAiUEEIaMmxzBhOOanr0Gvucly/CKdaWbi3Y5SFV3ZF849kL7uWzNEvH/a4mw3SzJwA30/SVqDpICTrTdUyFgnJj/jMH5ULrWCIkkGrQmhdkAnHojEgBfWl62fudDi0BBiliflDPqU8yOlihUAe1k2sKLPrNMZpv4SZEpar5zBQ6WAK/qRMLfgbvCUO5ekwS6UlQodFEYEmIFYSznHQ1eOs6aRi+WEe1U9VOZdn4qzPImARsAhYBCwCFgGLgEWgkhCghBfbcWOuqqbacyEnHg5Zcwgmvn4KoZHSbVp4ZKEibFK+hpOh7xQokUlEWfyI8C3yN2M0IYpIQBDfmmH2jovw7ATrEb/DjAc2f5dllc4FavJ+Lz8PYXgXCvYCBoXqsAK0RnwGJC2cI8pEhHS6Fz9sL+NMVzuYFhfSk07apGOZAaQZnS3j1xm0YG7SeRYbgC5S8oV04SpImg9Nz7LSbIofM0JMXez5lxWRDIVOE6sC4sm1UQr0OWRYhlyZNMaBH1gdULAQ4GoJNtJ8UzQCYM9HjV+7dnqvxWFJ9mQRsAhYBCwCFgGLgEXAIlAhCMSekPq9763cxGv0noYysAMn3FKGhH+gtDdLUDZj3yl8itxMDwRKfaIiwLxaIZC8EGFD5UB6vil5sgebf4i/+jcPfO5dTVe638MnLPkO2NgFNYEXcAYh1ygJrIVKhJyFaR3D33CEjrRBYsN2GxlZFCUmhC6bXpYdDem5AzRrMfnoFxdGEF9sCCGxeqI0OeWkab3UqlYQkA42FaRy8q5/NZaIRNn8QyGoiwqPKAAsk3XjX5QI+KWtGAEm9ZAj4iE5NSJkOV0fk0LH6ywqCnmm4sAzC9bZdQmBaCrXI2FPplpnEbAIWAQsAhYBi4BFwCJQOQjEVhi8RvVrSIM7UCIU2VDaCh9lRAqZ/DfDVAwOInwyvQUdiLVciTOEWd2Db4R0prCO4L+ptYmfm6JKda4b/Vpvx18XlqsFcWGf0nfoRNA2AZyNhYGc5XKc0JyxEoDCKAZh+5lHevZNmFhx92WjcIR1U5HStOCAGkPodLZMGBK6pMjQIs08u/JRh84v0jshZxYu2ypyu1YiqGWwXlp+uNcDsaZyRj1CrAaIk1JMdaAVJY81hvzSywvI8kUtQWFMIvuaREoQMsTuccaJqyZee2uf+8MIeypDBEaPfiKxmdNrU8dLDPRSau1nn3308eN/3XdNGbJqWbIIWAQsAhYBi4BFoJMQiKUwyLr6ATbjgoSohVAKkeA0HQ65hrRIUZFpkh76tXDJvMykI7lPAcP8EyEzbXXQ8SjpR3c/PqTkAktQs/Y8cLC58CG1ax7AsY7Cr1EQGCE8G/k3Q6JpZQ+F0Au/tB6N0VYWHS+/FKRRvlkKlXGKvfphnWnFIVQEpJpQCdH4aAUhPXxLauI1CIdTsST6YW2gYkIVgEqaHp5Erlgi6ye9bowoLORDrBHkCApTaGmQskTJkGykIgEcuWEeli0REkcfLy3jJR0/ciY9CQP3eJBYhYFAdZGbtPeSbbyEMxrX6HO4JINwvTYDK4Pg3wzXahAu1QD49VXF22HgoMFO/fgla6FIfoz0j5DysfHjqv5HpVLzZy342t+6qDm2WouARcAiYBGwCFgEOgGBtLhXrC6up//Zf9e8AonwS0beZ1cyhIjlEIw/lZ5qBHgWqZEndGpr2rAaBCQMGrOsaDj1gdSQNCXBSUGg5eRg9H2/PuPBzQ/SCQiWyNXt+xyGUFX9CcXVaHZZl7aYUBTmH53mUbwMGQ+9YYDt18OmmKh76uljeeDaMasiSTDzo0KzAWBxsXIRe/vpjHVCc8I0oyCYy6TDiJf6qRiwViPYu+lVmEy5YT6zOlIoByIfjQBp/ijMk1dP5iKgTNM6j/xrSp708CXyGVIgDn7tkM0LSUkL1qtQzFeZKGxqwqXX39Z7mM5gfzsDgYP3eKZPbW2vsahrX1iu9sW1+UKp64Uy/V+U+3iQUn8K1q+d2/CX3T8rdR22PIuARcAiYBGwCFgEug4BI+4V5eCMqau+5wfujZT400K/9r/RVN37K9Onq6aihViCjQaBU49Zcz4Up0tFT8APzzheve623qJEbDRAdEFD60e/tKOT8A4E6vtBtdsdwFd1IhvUfl/Cq+ExnO+ZNW/4m51Yt63KImARsAhYBDoZgSnjl4xGP+momfNHXN3JVdvqOhEB9AsXdyefvHxAylcXsSdchuYYjQFZIQduV9W45rTipViKjQWBU49dswVuFA75Ch1NFjgCh1Yd6zoIgfoxi3eqH/fyQypR9SqGpP0MT+c3OllZYMv4TtkVyuGFsBj+vX7ckjunjF4yjAnWWQQsAhYBi4BGYJ+vPtbLcaZFksHKHDN2PF8FYXDHMufTstdOBCLdrDV+4qcQADYR9YAqAo7MBGYE/eDC045ZxbHQ1lkEHD+ZugKKJV6GHLuE+4W6QuC856eCqyw8pUdg0uiF26OHZxbGfi3Bc4ohfOXhYOHwMFfi6CCh3oDicNPEvRaGc4bKgz/LhUXAImAR6CoEBg4a9LvJYw76ZlfVX6p6p4xbNBnf+lH41kNGtK47I1BUYTj95JXbYTrBKZT4jHVBzpQC0071SyWdy9JB69loEfjed1bsCkHxSAGAliixRmFyivLq7W7Ppb0t6vZ+4fNTxi2ZkUh4mHSsJkNZoDZfdg5MVUNxOKWq2vvX5PFLrjps3Av2w1J2V8kyZBGwCHQWAnWjn+iNOaD7KM89pLPq7Ih66r48uxqzF2VjVnQP2vd6R4BcRmUWVRicpHsN+MUY6CxZBJKJ9B5TZxCZkD/OcaccsXp4GbXNstLpCGDNJV9dBx2BpgX8m/vEv/uG23tigzzrSoEAPzbssfeqqt/AkKPvsie/FOV2dBlQGmqxftc51U7NO7CIHNHR9dnyLQIWAYtAOSLgeX0PwOexBz6SB4O/LOGqHLnNz5MasvVJ4P4LpLAWhvw4dZeUggrD6Ses3hdy3/4Z60LY7LDnGGm6A1l6kbFjgBtc212Ase2Ij8Ap317zHQiFu+qbIrw5/GA15Nms+Qzxy7U5MgjQquAmBjzHHvsumJ+QYaQdPvQ39ME38p7J45bQKlmxH8t2QGCzWgS6JQITdn2+b93oF4fU7fZcbbdsYKkapdyJLArv8S3R+TOqVMV2Zjm81ugA+omp01oYDBLd95z3Y22WUYUu8CUSaZ0gXCEJ33gJYz0UDk+S/QbCHmXQTv7V7/o0dF/IbMtyIXBK3Ue9/araNyAMbhEaoPAyJGVw/k139RWTZa58Ni46ApPHvTwGi+g2ANhuY/rF++NBP7X82w0LxqyOjoSltAhYBLoKgQP2fHpAr+qeeyrlfQM87IJjEBY4GIguZuzhotJ7O+HZXod31SeI/xgTHV8KfHd+04Y1C+Y8t8dHXcV7OdSLzTF7DPYGfIzvY2/yAwnqsllzR1xQDrzF4QH781wK6zZWQ9QO7UjNmvsghihN0+vEmwR77jYI5FUYTj9p1anYNviGZooClQIxK4QKg1EWQgVC5jYEztL1NX22nzFDre82KNmGFEXgpCmrLnPc4MdyQ+GHygL2e3jH7ddrhxtuUBuKFmAJCiKAXqhTQHBd9ge5YIYKSsQr5VWVDA6euWDEuxXEtmXVIrDRIMCx6mrwNt91lToZn/ud0PCCoxPyAUORAd+GF1O+c0XD/OEPgI4SxUblIGgfAkGbbRcHAP42a+7wr5hwJZwP3mPxFrW16i20o2c2vxuCDZvOmbfrp9lxbfXXj3/5L8g7sq35uyIfNsU9smHeyHu7ou7OqDPnQ89lVKEsXCT7iWEnNq0k8MmmOEhlAbe4URa0N61I4HUwtHr96nM7g3lbR3kgcHzd8s+Dk7Nw7XHKHLhPzrHKQvuu0c47L6yqH7f4FigKN3VHZYHo4I75SpBwXsRqG3u1Dy2b2yJgESglAlz6E++fs7zNt3nHddV0PKwjUH5OuSFKvVAW+IHY1XOd+yEQ/rV+zCIZmhMlb7ehCZxmbQYgO9aPXfjFSmpfz1o1raWyQP4xP61k1m8VBFsDm+pKOrAlLu/vbutyPvjVQWIaWjxQdxNntR/KAR1PokRINzLTJUYUCagX3LD5R8dP/PRzpLWu+yPgue7VuO49qEimlckgWHDz3X3u7/6t77gWHjR64aZb9/fmYgfwEzuuFl0ynuBGXLv/4gq+jONxXMjf4nwnLunDSHsej/Xb8K/qKD7w8cGyzO68yeMXj++oOmy5FgGLQHQE6vdetMOAzQYvwvvnF1Drt4ieMxolJIcdlefdxw4RvdpOtHyVTMUOIPDPic7Nnaqc1ZJ4X+CbcGzzBuiQ7/glURhkjwqlNs1VRznH+Y5aWs78tZe39HhDU9CpU1dujx37ThGFQDZqQwp6jnWYAiFeHQzzD9YHnPCPR5/xJGU4CHq6VdVXIKiX1zSF23O3Q2Dq5GVjcOXDCVxoHm8CFfgJ5Z7R7RrbiQ2asPUjNb087yEo7buVulo8o3hKnSU4/QkP62ONvvrrAwtGLI9SDyczer1qd8UWjvvhPbAfLvZXw17DKNkL02BHaigOsyaNf+lr98392tuFiW2qRcAi0FEISM+/683As40FCjrWsUPE23zb4RM3e/7w+xd8/T8dW1vXlv7FvmosLMX9W3OhuLwqV6Qsf1fl/gzv6Zwr82GOXUkUhgH9N92q/IFozWFy/Zp3W8d2nxiKd83c6SetfiRIORNEMYBcwbMoDKTKHp7EeIaZzKEo8OjeZZ4Z6ThJx9n9joa+HIdmXTdEoK4u8AY4qxZDSYDQiHuA2y3wjnLVrbfc0+ekbtjkTmsS9le4G2B+u1QV4tlch7LuxxX6U9O6NY+XauIhV0RRXtW+WC3jKNwHY0vBL14dry776MPdHv/rvmtKUZ4twyJgEYiOwOSxi0+CEH9zyToCIlYNueENXyV3bZg7akXELBVHhrlot+JbObUl45CkUmuTqSEPLxj1Scu0cgrXjV+4p+ckns7Lkx8cM3P+iBl50yMm1I1btJ+nvEcjkpcFGb+xs+aNaDanoywYKyETzSwMZ56yej+soz9BQfATF560NpBdK6VCoyxk4qF1igIh9Ih2A/96+LGKgikwQ2t9lY9Af3/FCYGLHmYxK+Aq6+u/HJanilvxoZyuBpYbPa9UygIe4UZYDG/1/abLGxbs8kGp2xmW+RuU+5u6sYvGesr9GXjnyiltdni7fGXgZoNmoIC6NhdiM1oELAKxEZg8ZskernKul5d57NztywAFZTvXScyqc2Yf0OBMTrWvtPLLjXZx5/tDc3HGHvterncg0mbkSi+XOC/wrgw/9zlZ8lVpLAyu4w3NWUFZR6r3ypq9EjCXnsPAZVT9JExiaSsCrQv4dMvwIyoIZlgSomhCoDLR4mB8IMOYAhSD0VxOMOr4wz87ugR82iLKDIGjD13WH9f6EnMv6GvP+Sv+xdN/37ese0nKDMpm7EBZOBQfD+5P0C6H65HEcbvvJLeZNX/49ztCWWjJYMP8nefPnDdiVz8IDsOL4LWW6bHCSh0OK8uPY+WxxBYBi0CbEZi418LNXc/hss0cZ98lDpLGvu64bbrnMtxjtt4ToA7KByxErbLe9VmGqRUZIgtLc0mGJEF4HJYPp7KNV8HSsuWtRIylFYblH67jcmk7NC831AhEQYBfxpvgkc4OS5zWHXReiDuIkyEqjAicy489+OMOHwfZnG8b6mgEPM+fply1Ke6GbPeG37fvjdkR1h8dgfoxi3fCsoW/5eMTPVdrSigKj8LCvT3MoyfAvN/pvR6z5414YOa8B7+K1wQmS7bDKXVJ3fglB7SjBJvVImARiIhAVbX3a3zkN49I3mFkePmdOWX0kmEdVkEXFYzFQZqtjtSKDeXsU64b3mHviITjekUVOUiJJVEY0Nk8tBU+ZR6B+3ZpmbPYbvZEYTjzuBXYdMWfZhQCow/QqqCPsB4mhIOOskUaTn7WPcw6OfC5o1vK8X0cgT8EW7nYISohhN3hNHXSJ9vjzviebguHoenr7wTeWdOnq6bu0MbObsPB454f7HjqIdTbqz1140pcNmvegwfOmj/qX+0pp/15p/mz5g0/B++GE/ByaOs94eIFdc9huz+bt1eu/XzaEiwCFoG6sS/vgk6+CWWBBCwcgae6m8xAYaqgwoB+op5Ojx7fLItr0IKJQW6/49GRtV2L6BzB0lgYIGpWnMIAMejdHIB0qyhRGILqxDS0CkqDVggoAhonPvzoJKRIBM84oChIBB4FPg3NXZaVQflnfPfQDytqneHmbbGhbARSyv8lBp0lfCiGgYOhprgpcP0fvXV2r0ey6aw/OgI9Vc10PDHtWRliTSrw6/SOoeWz0+as+SMwLErtCySWRUcjQwlM+tX06PmjTIz1WQQsAqVGAPMWftKmMgPnP7Ro4ktwNXoHj8GGbBNxPhefhF+j8+JZHPhAtMUF363b+4XPtyVnOeaZNGbhLvhIfq4Yb7BClN2wJC5xiknwPy3Gu04vzRwGlDU0Wn3lQwVpeGn5cNMxnCTOOGXVDhD4TkZjIfiFioER/6kd6H9RIUSRQJxEMwOHI+GMX71nFxPolx/tF5LAqXZVwCXDyu5hIKvWRUfguInvHwBFkctpYjEk/vIHVgVfnRW9FEuZjQAnGgLE1mtzZxMV8ONJeycZpA69b97Ofy1A1mVJs+cNf6J+3Mtfx50yD7dL0Y9mS0bRN3ESxldfdf/To95vmWbDFgGLQPsQwDLGI/BscsJtZIdP/WooCmfNnj/itkKZsCHZSMdNTAfNzoXoWqbB2pFQVVXskW/fsMaWBXdROOF6k6JUHajgIMeZho7c8un0GbDZZmdDjhsShX/IAiXaOyGYjk7p9nSgUTw9LhLPIMK9DIu8WhCVPhddMpValCu+O8UlIOj9AMjq1ZJEE2DztLBvGoqXSegoHMq/hEP9ANT4wygkZuOkZ4VlWSSOEToSv/7Bxx7y3/F3PLjl3LAwe6owBKZOXViV/BgT42X5VF5hDj3jtp/+TdPv2+T1CmtO2bCLuSA/ayszgP/VxmDDmDnzdv20rWV0Rj4MT3oTvWyHJ7zEU3iFVMepE8JDbVWNywnQp8XJZ2ktAhaB4ghUBVVH87se3QVP+k2NxzQ8tes7xfJgaORirA60qzd+2+9DKLuSikCxPCbdddzx8P/ChCv8XHA4kmkbOuA2qxt/4O4Nc6c9Y+K68qyHg7rnRuUBncolmcMwa97Ii6PWmY8OnVR7QWnYNl96s3jlPDxr7vAzm8XZQCsEsJO1s1/aZMCXRrMXBwJAXBQDSCYyN4HzFcKDCXgJIEFn0koC6wjDJp3F4M93nWtHjw4ivzBacWsjuhSBpg+3GAtVcFu55HJtQ3Y8z050buOV4aRePGJ7tSl7EHyiksHB5a4smLbd98SoF7B5Sxs39HNPmLL3i/9nyrJni4BFoDQI4AsOi3E0h+/93JlzR4yJoiyYErlE6sy5w3+JcKyNydDbvnd32AGai1lAUYo8JFs5XtmMxKip7Xkhvk+9zbUseg7UgKI0nUMAtp3oFoqNYP5BKWDHoiyqr8j3lPHx5sD4w4yCQMmQ8xQIPYl4zj7SGTUrpMp2KBvkWuGgMoGO6S8P6/+fk7NprL9yEBg6YvM/4xq/rG8BGYwkzGM53rMrpxXlxOk0TOpto3UBE4mxfOmkmQtGvFtOLSrGy6y5I3+FN8rdxehapuO+qwmqEue3jLdhi4BFoO0IcJ4A3ueRemGhLCTRYXQ6aqOkENutXZ66CBnfiZoRX5iezuBth0elL1e6wHUjDUcy/GM8UlkoDJP2XrINeJpq+Ip0Vk6PutFPRFcwIhUanwgbig6GeNojak7cl0uj0m7MdJhaEPxDhhPp0SWiF6SVA6MkUHHgO0J6lenXTlsXwjRGUUHAn96LAa8WWSlJj1VCPRjAgj+sxnRc3b8HhkXYUwUhMG2awsVMnSHXVyY885aAIqj8qVPrPvtKBTWlLFidPO7QIyAItwk36PHfmz1/5FNl0ZCYTPhr1p6IGyf2fAu8W47tjsstxoTPklsESoaASlRxQYJoLlC/apg38u/RiFtTPbxo1NogFZzaOiV/jHJSg/OnVkaK6wSRhiNlWqO2qRu3+EuZcNf4qqqcy/Fxj70nR8rtV5JhSe1pta/coXHyQ1R9Nw79xkqL4efqduoFzV2oHEBJEKWAXcohkXhDYioHjDeKgwxZ4rh2umxCHaOplRqY3NDU7vFpYZH21MkI3Dnn/57Exb2XF1N2BMfZ9wMP98C1ncxKRVdHUzsekTY9B1Dwbyg22bCcwWn4y+7rUn7w/dg86uUWYwkcseuwGSwCGxECWP3mGxGbu2x146qfRqTNSxY88dZjkC4a8xK0THDVZi2jKilcN+al7fCh/HJcniFbdamVAfPNdgXfh8flm/QQBko08bkttes8Va4aFif32uTqpXHoN1baxJqg569r1RqaGben8K8dHmm4dIiWheyhSkwECYcZaZemlAQqEPzTCgUtC6TTtPzFS+qk7xz2z1vunrP133T+jv296Kr1t6BnY0AKC7zJIm/QabBFBDrLA8U4cew7T4HrpG42R2KZ1eNlHjeIAqwZRyd56cFsVR3W8S4CyCbNVgwYWNhkD2GS4SyrC2li5Rr93cMUL8S52DweVDizeBw8e/Ay0dP1eCyrxj1j2pk93iZtZztc3nPB5IFACya/AO0hy+7YE+qWHXZbw4A5nc1PJdanBm89Cah9Pi7veLb+9c8VqYofAtbwxMgnp4x/mRP79oyDAbonON76nDh5LK1FwCKQD4Hgi/jC5EvMxAfBvD8+s9eyTETbfJzPMCVY8ha+iNGE6KBUq+60jd/25vLcRKzhSKY+fFOpMLR5MQxTTlvPWNXpyrbmdZXX9RYGxx1KESuKgxyzohT3dpS6Kp0mwY22vn/i6jMxv+BREXdFsNfzDmA64L+OhlDI1wqD+oeeFo6CIyZAc95CMyIK3/zj2Ccc+PWCpGKPNFdB6HCHKv8OxeA6VhyyAOEfigwVCMSxPT7D9ENTMAqBhJlMZYmKhbRLhxGCQ1uQz8SnDDACEpJBT8Gf0VBERPgnD74HfFAe06QupLsAmvEsT+cBjQc/smOcO8h97OsFH8tz/Ie7Sllg7TMe2PzdYyZ+cDV4u4Bh49Daq0+bEDxyw6Nqg4mz59wIQNc8MHdK0difLlo0qq0boRUtvDMJ8Oxdglv6sVh1QtDAJlNbNswf/t9Y+SyxRcAi0AoBfGU+3yoyRwQ+W4tzRLcpCiLC31FvJIUBskS5TKJtU1shA8QcjqSrgTiwC5aS3rwrlpKuH7foQOC+d9saTHHH73KFAaLXsOj8q/ei027clKKEXX9r7z+hm/gPGQWBEi8OoC4HMRLNIQQLfloRtAoBmnS0jsc8BVEOOESJdFpKZ1FGmWAGNe7bB/3zUJO3Q8/ram7G0Kt/iAWBigGmbtFP4TwFP4bUaMVB4sguFCY5IJpDNKOyIEcS9I3IR6EfR6pJ50unp5CPB9LkYPlZ9Bk65JO6Aye5QZchygniYPWQusgTeJbyyCfz6nPQmGxyu7yHObna+Tm4+m/6/uBrIgi+sKH3Crs0WZGbGcsMQu1T7CmP5XBH/A27OP8+VqYyJp41f/jjeD+8FJdFvLT2iZvH0lsELALNEZDJqRHXzVeBWtQ8dztCvvogam7MfVwVlbbc6ML5Vju3hS+KSlXViTbvzdOWOpmH3yZ0/P28rfmZD/m7XGEAG0Mjt8GukBQZKlEYSJ30OcwBG3CJHSHML8I+xBTGUXmgEhEqEhT+ITDqME56/wUdJqWoEfKDgOQPc5NEnHiunjDhrRoT01FnTNZNYjTRmVoABx8Q6p1QsM/EUYFgmhbMQ+EcYbQSgrsoCSK4g04UByhDaXpaGqCENCXlyCgMujxDlwK6WtHQ8bQ2iMWB5cICwfo1DwjDn0I9mg/yyzQJX3/pT3q81VFYRS337seHrAEuP+LEdnAVKpC8pu75Uyeu2TxqORsjnRqzDTcxa8PE/wAWnWm8a7qNg2J8aezGKKswxMbMZrAItEDAdXoPaxGVN9ioNpROYVDOFnkrapGAL8rSFlEVE8TMvjZZFzINDDgsqVOdGr/1dyHrRbL+5GMM0kvXKwyBMywff63ilV+x91irtnRwRFphuOm2vm86yr8OoqxRA1pXTXlQ5HycQr+cIf3QMWcmDIUCNGJh0ImiRIjeIdTMEHyxv/I7pUf68p/2eAyC/sMikEPkYg8+lgPVPIogDn+oGIiSIMqBFtJpJaAAL/TMm4SQDMnfR2E8UskN+oA5IoUj2bReDpOebMRGyFAompWLcowiIWWLlYPWCQ5LYhrAMzSsE3FO0vmoyqm9xMDX1ec7Hxh0D7h8PlQPw+vv93bcVJeNvexqTCLV7zr7R6LLJgqCF2fNHfFgdlR38H8crHgE74lVcdqCp4RDGcO3TpycltYiYBEwCPgJ6fVbj3c47Nz5D3yN3irlXi94frlcZySHr+F7kQjLkaiNw5HSTVFq7MF7PNMnHe5gT91uz9XCknRxe6tRbtdPekaH9tCo7cD3592otBs7XSIbgGBt0yVOTc1R+BIP0vF4jYjDmdI/3y+MohcnyLEIm6FJjEMsJkMIDdLki84f5sEZQ1aEngQoif3SKDI4/9v7/v03v33sS++DqkNdynXPxiznfTHPopoVUXmhNUAL6DhTaJeefMaRN3AJAV6Ed9CnUtAw4HyaA+DYuy5naSCbKC0OQ5rexcaWphy218WsZ02FeQnIzjkJRmuTdISFHxTMqQ50tGhgMjRGKwU/hrVkpY4th18VuP77p2O29vNspG4/mFbOUSfUr7jptln9Yg83KYdWdTQPQOiAuHVgfn67zMRx6+ss+gULxiSnjF/yFG6a6JhgGEXdmEUjG57YuXS9np3VYFuPRaBMEGiYO+pVsFLbyexAJnW2Dj9tRatuDCpzfDnnH0DO2D382BdtZy4CYFRTW9NrP6Q15EovdZzqWXsGvuJbtrdcyAFdamE4aPRCrtLUK2o7IJ4ujUq7sdM1UxhuuGeTlaceu/LHuOC3CzCUqOE46ZdSoJzppV9+kUYSiWO8VhZ0EL+Shj4CCNZUD4wmkSZnFsfpnUrI5lVHS6gDf666tMdb55679nooAOeYOQYinFNpIHuhVYFpMlSJXDOOiXCYkQC6JFupw0ZhaKYhCaGkU4ROgQarBqD1TZCrq6Ak6DB2cwQ8Gl8fZ73SkKAkygHh0ooCiwKGKljSu3fPO6XgMvr59QObv3jcpI/uAkvfJUI88MttN2it2oPeMmK3y1mZOPr5z+G+2CkOIwCw0fGX/TlOnkqiRafDfGASXWFA4zzX3RenilIY6se+fP0GP7jwgQUjllfS9WkLr/t89bFe/TYdvA/efCMDpYbgPTAYX43B+F4MwUdjIF4L6/Bm+Aj39sd4TeIcfIT4f6iU80ilbUZYDB9ZU1+pz2MXmy2w2N2WeDf2xJt/ObqkPoWd+lNYn/9234JRrxcrpzukY8GCLdD2nlHagnsi9Zm/oiIXN6iq9g4Le9CiNDU/jZJN3DpcYThs3AubgN8f5mckegqe6S5VGHrEsC6wVZAB343euo2bspnCQCg23arPnZ++t/oUeEeKgK9lZY0S7ihxRkBOi7w6mr+ahHQQckUKzxSQyY5bKl2G5Dmq/qC/3TTr4R1fypTUMb7169ddUuXWHAU5fhDl/bSFAWwyrBUEbVUAl0iHkoAEoyjwjKYhvindBGyAKcxSQaCj1cV1E8gnQXwH9dqpYRBhpCNAeloc6MS6EBJoS0OItS4C31f3dL1xWhhRRicvUOfBEDMJLMkOj2wXuN/tpPo1R9wyy7mnjFjtclaqEz1iD0fC7fJMw4Ixq7uc+Q5iwE+p+V6rN1HhyiB4fjkfRf3ei3ZwqtyR+dJzxX+YWj6L1o5caaWIqxu/5AA8E6fVqOA5lDezFGXmKqNu9KKtXc/dNVdaoTj/g7caGl6bHH19/ByF1Y1fuJUbeAfi6T8I12cM2luj13gzxGEXibzaVG+8JDYTL5IlhQHcB/Xjl/wDL8lHYH3+w8y5IxaY3J1xRhv2RBuGRq3LTy1/sPWzOc2dMubgMYFyD8GL/hC0bSspLzQlh58JviPx9scXIOE6WGKYStOT+P78FksOP4wk87mIykpF0Hlu8A35gEbiVv2vI5/JSCy0lai9w5Ey9R4wevQTiY7GoVpVX4D7tF+m2rb7UE6XKgzKU8PicO+mrIUhKl6tPtMUSk85duXpsBs+nX6wIVWLfJ/nFcY+ZSbJS58+oafYSz8OvhlDL07ayVuTISRi3I+bUp3SI33DDZusPPPUNT+GteR2rSyASyoOVBaoNHAIEiR9zj+g4M/hR3JAUaAgLMoB46k4wJmzBLJ+GE+lgS6l4MfQJA5popVBBmSxrFCjoNrg4guLMaWgQwakUc1i3zwRSqhg9lXX1eJ6lKebfv9m7x838ZPLsb/G5cJheFnRe3bF1IP+N2f6w1usLU/OO58rLA4wEjjFqhgK5p9iZagw4oYFI16ZMm7Jp7jvI39o8Gzk39CpyjsOj9DZcWDYTPX7D+ifjJMnKi0/+LjiV2l6WU63wxQGN+HOwHsYlr0YLgiaUoO3fsZ5rW0fzrq9X/i8W1XzM7ysJgN3vsH0TwwWsklRxA4oYAeUcjb36mhKJc+574lRL2TTdJQfysLFeM+PiVq+cvtyJRsK+OLQg34YrAgXI7CjABEdiUFod53nqToqTEGgLp89b/hvw2K7xemgnRf2xLfv5xqXKE3yK3LOlgyJCaAY4WFor8O92H+I6vcNlDOvvWXly8/nF88aO4lL4iA3RX6Pl6TCFoXg2zA0+mPnrGl4euTHLYqwwTwI5JRcbr6j7zO41TMfNX4FePPLA8CHgF8FnikZUvxlDHxUFBhnIhDHPBKUvKRnlI6TgJQB4Vn5u31rv1eO1HEd+9tv0553Qg9YLMORZLUkWkPAP4YfcXKyj2FDaUUBhFQSeKR8jAyBZaEpuR7+pJNMrRc6TnTm4WOnN31oJaMpuU4UCh+KAhUI5mUZpJU0Wi5YNiqnXiX1Y76CHhqlzxgFhUK8H3QsIu0vvee6Ta5BKe9ISbzgcDhtqXr1Ok+H7K9GgMMzYrpkEnukdGuH21+x5z2yw+MSzrNqnQXvoYdaxxaOcV0V2/JTuMRM6uBEvxPwxoMADKfUBL2sbia9VL66MYsPRj3xlAVUDuyvv3/+yKVx+Th09JL+9eNevtqtrvkHXun1zV7rcQvLT79nlZd4HkL07PqxC7+Yn6xEKUoNi1NSylcy927y2MV7Yy7OS9h/836893aMU0ZLWt4r6Di6G9jeC4tHSXp9W9bRFeGeAzwMd3b+L0rdeCEEGJKLTsTKc7UJ92DIOK06Y9vaErFUtTVzhHxudfWluC7VEUgjkkTv+IlYYDyywB0WNQNus/ei0lq6zHzbVlj4CkJqEKzj54Q97TzoT4dDQV/EwixlIJ0OUqoFuBG1MEyRgF8UREh5zC/lUliW/nQncN2ff2efV3q1YqbEEXpoj386eeUhw5BCK4Ne/agp5I1WBg5HgiJAYR+KAgV/o0CYeCoJydQ6USCoRGilAMoFlAGh4Vn8VA6Yn8OZtJIhigbLh5Iilg5YODh3Ie0Pgqt+cVPt0hJDUPLiZLM2WZqX0IF/wZbX3z3ne0csG1ryCiu0QDwD8RSGwPnPrAVf65Qd0bsW0kAEr6g84D2S18Iwe/5Dz+AW/CBqWUKnOkZhmLDr833xJrzI8ILX30A1duvYQr3Jn+9MJQRKz8/ypeeND5wPV65ezx7xWK5+3JIjaxLqX7gOZ6NNGHrUsQ5vkjqsEPEqN5XqqJpkDfog+Fyc8puanP9NGbv4Etd1n8B1HhUnbzFaYDvJCxKLJ45dXPHvTw6VAz7nFGtzVvofGhbs/M+scMV4ca9OKimzGNZW0vKyCoMSjqHn6ltZUe324r7tU/fl2SVUQOKxhFWaoj8vdoWkWODmtDCwhJvv7PnvIHCvELEfdwCFffrTYfGTEgIiu+dFQJQgUkiX5UwwEDk8TODwHm2dMOQIb9monE7pkb5uet9nMPxoJocggRHwpEVc045UWsinskDrAq0HWvDXFoK1Ekd/CkoClQijQDAs8x4Q1+RrBaIpuTatNIjSwRqRLpYLnLXigDJkknUaov9sUL1xDSrD3Xb/pnMwjuoJXn+5B/R175EKvHA4RmW0oyO5xF0Wc4+K4PmO5KdcysYT+EkcXvDm2DQ//TSsIxDMyZ/eOgW36o5T9n4xUu9n69z5Y/r26XEenoVmyg3epSUXet2x2x6Fcr+Un5PcKb7yf/zoC1+PtfJa/bjFF6Ku3wKzgblL7ZhY1FnrKPeByeMXH9sRNXh7D9sCHzo94SxiBbU9VAPGmV4A8rzf0ohF5SZTzheqXPcPnbm8Zm5G2h5bP3rR172E9zDul8iKJd4Hv2x7jV2XM+wgGF9KDvD+2GrS+JdGlLLMdFnKu4LiXTpcIk9q4Be6blhS4AyL2gy8U5ZGpbV0RV5yNet6XgmQ3qNATeFeC9NGuA7DEk8otQJggrwDKYLzj35cGPgyTlsVGEaqJGgLBAbznz1lvyXDMpQd5/OS3g8hoK+TeQu0MJgJzujeF0E+HIKkhxNlFAIj6FOBSMGyYIYiifIgigWViLUoD5YEhmU4kh7SZBQDbWlgmThQDvERZUyaq4dIYd+FH06fripq/D+u8um4tkATjveNXFxVd+IRq/aWuI3+Rw2OCcGHMekrkhyrhMVSGPC0VBcaroEFF+6NC0RQVV3SYUnsGcZ42jNa8oFn/aCWce0JY45ED4irF8UvI1g4e+7IO6Pm41wMDA26A3Nw2lBX1FoK00G2wagf99f1Y5ecX5gyfmqq2h0aNxeu5e5xkzYiAwAAQABJREFU88Slx72+Y22P3r+Lm6+r6bmTNFcGUwnvWfCyfVR+IGu8hPkbT0SlLye6fn1qMOk/2vAefBtX4BOZGfpdoCFVTqLkVgZcm31w/0ZSbnBN0Lvp3FGAxWZJVV7XzWPAdNDoz7HvvNuMcRsoiEDBXpFfNqh1EAB/AGk2LdCKgA8hXyuleDREHTB1MJxxmoqKBGVH/IROVAfJip90FtLhEQqCHlhC9GpD25Hn6+6qfQ+joa6QXZplnkFmmBAFewr1RqDXCoQeemTmIXBYkVYaqCAgDdYEQ8f8tCqQNlvBMFYKlivtpUCNf61IULnAECjOo0gGf7nxrl6/78j2d0TZ0xsGvorLOF2Xre8AufaBf920aUHB+60j+CmnMg/Y8+kBuN0j97KRd8yL3ygmZGFg4Kexr1Wyec99s/zz//Uk3iYxsQsmNCujnYEqV12O91uPHMVsX8rx+EPc/qfivoplHeGrFvu6fB+8ZV7MORg1UezhHuL1fwRP9DEmrivPylWX1o9ffFopeVBBYlgpyytlWfgEHzh5zKJ9S1lmqcviMJRJY17+MixAk6aMW/wTN9H/NazvwGsU+b2Pm/GzpEpOKTVvnVUeuj0jD0fCM/sIvvT3ReENuJRYYZjmwgrLDuFIDrzein20Ilu7MaS9SywM+hsbfbUnzJ1dGgkASyQIFH2Qb7yrzyxItk/jkB5jOSMrvzJcNhXfnRBKWggg/0tPuY5iGv9yxetsLDPMLnT4HEl+NaluwuJvmJSOPPurel8Ftv8t9aJuzlnQAj7nLuje/4yCwHCoSOBsJj0nfcxfwOFDOWiCZYHzGUxeKggSpnIh1oaMUqKVBj2nQSsS6UnQ2FXeOx1optHpSAxKXXaN7/4EZS7jxdXXn9fVHf7RW6uOK3VdlVReb7dnvPkLaBzGY35USW1sK69BKp6FgfVg0H7eic8NzmQsZ+A8EI8fNa5UY2+xWs4uhccGewfF4y03NSceB66KPYwTb7p7GuaN/EvuUlvFqtoeve7CQ/zNVildGuFeNWncoq+WigVsHjO0VGV1RDnKdS/piHLbWiatB1jd7AUemKD9hjtkmzVVnvM3WIDuxYvrYrz1t4pTNj522HHar79v7tfejpOvXGi5ChS+eftF5QfLST+wYf3ax9DuossZA8vhpZzLMmXswUdC5tkpCq8Q/VZtWLf2Yoz++CwKPWlcp2ssDL2resW657BR1rtR22TpImr+vgvhVWHbGXyBjUVAvBCw+dfc4fbPossOiOJAYpCIk7MJMBP8/Kdy4ndOj/T0h9Va9Or/gD38YlVg1xv+fFgMdBwtBJkhSrQkyPwGKBOpFFY8wiHKAcNhGSafDFXKik9bGqg4hNYJk5fKBOtFZUjzf3PzrF4vhSh16Klu3+dKPg75pjl9P8U1vCibcbm6Sl02te6zftnxG5PfTzgx5y/I47BRKAyu58QeeofeoYL3LoYaxhqWhPdTb7X51nuX4p7EuJlfyOsxT2H4WJdEYcDE4x/i2SqIQ0sW8IpZvXZ98MOW8fnCU8a+/APwe2i+9K6KR7vRfHemFtRKwIVyhpWglA4rAtfga9gEbrcOqyBuwSoYB7lgFx6417cFf21eGQjfi+WYC7kPhsjNjctGudD37Kv2gzwEpaG4w5d+w/rG1Y8+9Oyeq/CWX1A8B5dXL42VYcLWj9TgmkVWPjHE58o5z+2BjRXdyAqD8rwCc8yitLaNNJ4aFidnUypYGod+Y6ctamEgQLfc1WsJBNlfU57Ndlq0NpF4fcNR1qfAz7NRJ3RYx5EaLxatR0gOnU9EI2oaYRLy7vS35xeeICQd/HPbvQNngqdn2cvPYUayRBH5ENZkAFVGwAeNXvnIDEeCNYFKAw6ZlwAFAeOJENZLrpr5DSxblI1wiBInRVOxEEylzZi3wLKD5Gov8H/cwU2W4jkG3HWqn63b97VYAkcU3rb8uO9NsC39QyuU+k5BWzerqklcGCV/d6TBOP28PeL52usGG4eFActTDsiHQd74APsCF3D/XJF8Au+byB85FuX67V8tqX7Mookoas8CrCEp2KvQHIzCeXUqrBhb4oUFS2Q8h6fx8oeeHfm/KLkmj3t5TOAGl0WhzUmDFyre/6+gvbMxvO4S+L+dCvw6DG/4Ib4Rv0b4KbQh1vyV7HrwftmhZ3/vl9lxbfXjNTy0rXnz5cP9twHt+yswfxx+DtdcnY82Sjz2R9onCl1n0OCbWRK8iAvGKuwxe/7IpzqD7w6rw3MjD0fCPTFfKwt4MgLnoSg8wXJzSBS6YjR9hg45FcJNxGsX/G/dsuQ1LFP5fuR3KZ7vLhmShPdJxHahQYGz/v6nR31QDC+bnkEgksJAct9VF+AmW6EFQGKNjyskahM2RVIZaBUrgjcpmCv8pTeMpxcPjU6ReJMQXEqTO1M62iVTTaeDPdlKjYI9lQIK9GYYEVmXdqF9VAIkLbRCUPjnsCPOWdDzFjLptCAYWq0QcNhRkzSdrZS4cP4E68D/ZdwIraPby/KDRPBTCPXbB6rx4lLXN22BSmIzujN1uWypnqMCgE/73lErty11fZVQHvb3jt0DhxfgmkpoW3t5xLrzsZUpPCsFsVm0aFQTBvXFGpYUtHN5VRnS5HF1uSIOq/GoVKJdY9JdFUzD+7a2SE3NknE//WvV0vdFAGiWkCNAhQTXZSbee16O5KJREJIbUk2N282aN2I4dmyux0TWC+HnUKh7Z88bceWsecOPR/gbby1PbYFNLM8Eb8uLFpqDABhM5dj5HEnxopQzLF6G3NRo93t4sR/T1Bhs6899s9fMeSN2mjV3xL6z5g7/KtrcBwtt7Il7N/J48OxaMCegLIaFyeZkjtMrm7fYft07d5H//pujcE/8PXb+MsrA5x5fuQOjsgR5Z46hTQbBH4y/0Bn31d4co1+Iplga5SkMD47eIRkEFz68aJRYf1UqGVlhwDujSxQGyBzDimGQTlfBv+HHo2hdVAQiKwy33N3nIygMFxNdvNj5iwOPCGVBcbidES8H0ppdhTAgyoTQo1qeJT4zx4HF6iidATfdpomapp+GFXTo6TcPbLEI7687aSXQbRL1AO3RFoVUqCRwPgOVALEiGMUhCPdcQJjKgJnsLMoGlArSNseJk5z1Bm48iwMeqOvtPuvXlKS3rBhY9fu/sC3APpVXCkLBSfUHvLJjsTxx02+Z3fsxNBwvQ15YXmdgCkEJNUYSWOLWV+702LF5WVweMQ6wUxTmuHyVmh5qeGyFAXmK9tZixa64w5K2wxKGX2hr+9zB25yCu3zrKPldN2jzsKRJoxduj3fKMVHqaUaDfRMe/ef+G5rF5Ql4bsDnNPZ1wcO+EF0oe0FIntzw1K7v5Ck+HU3Fbtb8EdeuTaW2QeQteCcVtBylM2Z5qlznrKxgW7zQLeONuW9ZCb593LfoIn/Nuu1nzh8x476nRrzFuTQt6WY/MeJZKA+7+X4wrWVa0XAQbdx50XLaSVDtuMPaWgSvL7CakUr5X4IiOa3htclFx/C3ta7OyqcGbYPVhlTfiPX569WGtFWBmyYCD1jhCjt8OxO9avocUJiqcGqN52CZ54hDGIPgtdS8f84wJX62fFlkhQHPQZcoDJjPNdTwW/Rs92AoClFLgsgKAzOmeva6Af3Eb4rgl5b4IQyKE2FQC4VhTPpE5QBOFAIhx6uZ+SFAymHiRKAEHWnlT87fm7TPc9tLAR38g8VNz0cVK8mAsTCQD7IplgBjdcDwI1gktPUBCkIjLAvJUJGQOQkytEgPOaICwfboePjxLWRZpv08awsEFBPln3PDo9tE+pi3F4pk0vklmlUlfASBByY7RFHB8IOzwas2qRimff+AU45eHXlymMlW8WdffRy3DV6BDcrillXO9NjzpdleBVF4hdm7oIWBZfgf/nMePsaxeq4TftX+UepvSVO323MDsXpPnCF3bd71ucrzLsezG6vnH++yxyHEP9iS71xhjJX/El7Oh+dKKxwX/HHm3Ad3bZg76pnCdK1TH14w6pOZc4efjMnHJ7ZOLRyDcdZHHjzu+bhLFqcLnbjXwiF4H9akI2J6gO0/MPZqBxGA/7I7FIfiLpj/1qX4wi0sTpmhwLeotyyjm4nqEp+XaPvwLeDMpaJvrtSN2XIBjk0TJ+WKzxWH99HzD837OjFIO9zzD6cDBTyYTHxIgeSCSdxnBu+M7xckykrEqhE/zFZ4H//rvmsgy0RU7rrGwgA5ZlhWEwp60ZalBQlsYisEYikM2BOgCWMNZZgJhWDtcAu6uhitEDBFxFAIx3iNSmRIiTcFhe8wpKmYnu1aBJEEobY0Y1Szq8nl//1DX/gQytAlRsgnjVlaVaR+4d/MNchMfjbDlpqSayD8bwitB7Q6hEObqFxAyaBiQDwIgU7DvAf8hZjMv+fBrefk4qvUcZPGv7AvmNhfro9wwHYG47814a+Hlrqu22b1fRNlXt+sXDRY+cEvp40OEs3iu3sguSG2wgBdLrYgXZEwtmFIUnJDY1GLTdh7me7Ni4SNCtqkMLi9ark6WPQhAwof1fFf2C0ST1lE3AgLL43DsqKKevGsJ6Fgybu7KDEIMF6abYn1fcCr7U10kxzpONg4rx1u5ryRv8YbaXacIvBOrenh9PhenDzZtFVejJ7J7IzwA9t/rVsXjGdPcYukgkERxlLBjwoS5Ugc6NRumiO6c6NiCGatGVNbQBJ4AXt63IN5PFu1Tq+sGO5PgrsguiCvWg+TxFDISO8oSAv7yaTlNkAUVFVdjO9+jyhZcU8vaJg74o+taINoc8LQsdwl9yjqHdqK53wR1sKQD5m88bE+CCzl1t/1ewSrfT5KoZeyPYVO8VD8RyStD8aZsDkLKcipTmSosBwwBmamnZShaUwchhXsN3H8s+0yxZmyip039Gi6Hnz+k43icCQySqGeTiwByYyCra0QHKKEJVZhZSC93vU5VBRCi4RYZEJcWIa4EAe9ApOTwgf6DJ3Qsb/ycnMDWBdCoFEdrwXZC5R79YQJb7W5ly0f51Vu08WoAasshAqkEKrtPx625tR8ebpj/IZU0yex27WRWBhw98Ua+oI76WNZuSMCoHGHJaHI0bAWxJobUDd60da4x0+JwE4zEuW4BzaLiBKIMkeidTk3RR0nXr/3oh3wPpjcuohCMcHKZCp5CCwLKwpRRU2D4jEV35Z3o9KTDl+RqTjxdRbfeWpY/Ey4awPnA1gWxkWdRN6yjjWB/0rLuGLhKsfr8mGKKoi/yV12u3B/8f8IL0i8MXnckvOy0yrNv5nbd2+0JvIQHIgQD7RsI+bywNIUvN8yvmUYoPXu83+bj2sZXywMxewrkEOOKkbHdH6mk6ng3Ny00ZZWhWITGY/c9cSPld3QY1wHKGlL49eycefIktSjA4GJq2dB3m2SN3PW61mUBdiGKWBrEVsn4gbETahjWAt9mZCuFx9OeJBXaJmue+Ip2IrA7bnXTN15YZWm7rjfhoYvN6LCs1ivtAP80E+LgOGFtVNJoMMDjHhtMdDzEkJLAtJJz3/uz0BFQefXigfzCg5oMNo3/Z5HdniVcR3tBiZquMnTDroefRWosGmlLfhif9UYuRcyKq833LPJSphczydYco+EGYHwT6dOXdklPRFReS8lnayKgZUZYpWpgo3CwoD7YvNYuAROZEHrI3/ln/GYrYpaPnipdWt7jI5KTzo34V2B56o6Th7SYtWbWPMYJo9Zsj/42ztOPXiPfbwh5UyLmkdVyaTIWN8GbIB5/H0LRr0etY5idFQ8MMb/6GJ0zdKVMxhDqcJ3W7OUooE2C8CB8+O4loVsZjgMC2/hGGPD8T1RGOLZ1U45w0rCAnq8sXjK5djL4cclKa8LCnFV9NWRIAf9nXNbcrDJj/EfcsS3isLnOro1I8ztBt4V8EZ9pmfdt2AkFJgcTnF/peIO3/ZOVxiqqnvHslYFKvlu8ZZYimwEot5A2Xmc6b/v+zo+QjdSGhahOCtVBGgMrXXDYUpZSZQX5RBROUuBoFAtB07MhwcQdBith7AI7Tz7wbafDNwQefwdsrTZzX50p4eh9zyu25cpxigQoiyAZypBPDghmo5KhWkHz6IkoRFsBx3zG0c/m42GLncTTRea+I48HzbuhU04xtrwJUoacG7hfly3/2tDWsS1Ozh4uz53oMFLWJDgpvek61/dGH096HYzUR4FxLMyBEa5Kw/mO4ILjj3HY7RdvLJVZIVhwYIx6yGZPxyrfNeJPCxpyrhFe+FZnhir/JAYwv+Xok+ynuYqT/08bj14R1/wwIIRy6PkEwukcg6OQmto8Dz/C5OW7zXhUp0bnhj5JN6Y/45TnqfcPePQp2ldZ1jaH9GDd/jLs+Y/8JuI5PnJ4u7m7qlIcyTyV1iKlCCWcFa0RuzRM3ns4pOK0pUfAR5h57CobOF+bmVdMHlhCY00LAlCA59PER9M3kJnLo0MJicUojFp4K/Rb9qQX3kLVCTlFvITrGDTWgkXpp6OOLteMCxOuV6j3eU5Dl6kbfsFTSUvwh0rY7Ip/GpROLyHqQxIBPRM0RI0WxKtCSko61ue5yx6UopAKcxBeRAWqZZAgQicnxy2z7Oxhi7omuP/QmFBT3uQzLSN7OIP7LouDB1oB98UjPUYpk9VSVNIpyMyJ+bJjtd5kSdwpv3+4VHxhEhdbOxf101dihoHONgli/XLH876uvDCCN99MGnkZ7ELL5Jh2jRs/OdwzXiskYRlmaQm4qfUCacfv/qrRbJ3p+R48xiU2r1kG1OVKYo9nJr95HaMwR/u1pdjkMPKF3MTt8CNqjDgEXZ/EYeXlrTY1f3AlnG5wvXjD/42npiv5ErLGxc4S2bOfeD2vOktEgap/rvioezbIrpwUAUs37zZC9PGTo225GS62CDYK+2P4cE3Z2gMciHFC+2C9s7X0HUGsYaBrk/G3+QwbtuK0cPKcT4sQBg2hkUtfP9SfEPuwy3AnnPA0jaHzsKb6sctntK23F2Ta8rYJZiDFN06iuc3r8Lgr90wD/LG2mItwbtyCOYx4TmN5NBHGFwZiRJEmFt4U6GVzSAtRFIY8IX36nbbB0pD5zk3iDERH0tiznzqkf92Hnfdo6Y2KwzTGwaugBaJF6YZOpQFiAiCmbCI/ezJZjycFlZNelpQRQT8ePNoUZaEIU1YHl4o/UBymcnZkeeGR0f+Hctg3kwmyIZLZYB/mkUIvZjnFDrGJbyeojhQeWAalQfjRMFAgPn57zoJKQdRr3/atO4mQ9eRZyhaO6LqE1i/gVXqE7z1NRHmJNL97pEHvfG1UvPzq9/2fRp1zBYOeE0JnBN4+PBcW+q6yrU83FOxFAagVN2jf7whKOXa9nx84QmL1PuVnR/m5MgWBsm3bu2fcF6TXUZBv3K+UDfmpaJWjynjl3wL77N2PStof9FhSZzoiOFLFxfkOWdiCkp69EnI6Ev4Zs5i8kXiw7suaLwzX3J74yF9/jFOGXij7BmHPk2rnGFpfwQP3uUr3l6WghW6FC7meO9VXa8wcELs7Pkjbps1b+Q1M+eP/An2lzgcK0Rtuz4ZbOI7/nG4DlidjF+bWI5dSXdNHP3852Ll6kJidIhOilx94PxHz1XInaMBq2vhfT83d2qL2IR3SIuYnEFYPzEXSY3KmdgiEkrz8tS6dehULOAiTnpmCX5VbWcPSxpWgPNmSbhu/4nzXmyWeSMOZKTeNoCw+fa9b//f31eeDOl4uGTHQFY6WgjwGwqm0EnR6cAo06vN3dFELeB8B5LiKUm/WkSp0JHYKl5HkwhHKHAfO2n8kzffN/cbMrwFOTvMJavdadUb1JFNqaTc+B6UgJQHdsNlUbOVBjLBUTaK1gbwSgWD9FpZ0EoHacTSgDayyWjQmRgukaS3w53vXIuuBqzSyWqzQQcvwkwWByBES64D5R66VVlp7fQm3epzq5zkQWChFpdfHDgYc9rxqybecHuf+9tZfNlnR1vfjsuk63gU4ijwdjtX58z2cP/F2r0Wd2/j28uc1+OAwY8xhHsInwof0GjO82R51TfyUXN5S/Dys5aPTz76vPGYk8AJe2bn11x0/YZtcQrih+ZKyxeH19DMWfN2hpIe3SHPN1u9DwpnX+isr/YO3mPxFoXJ2pbq+qnX4+x3iG/MsLq9Fm/W8PTIWIo5uIuFLa75Y9w/om2tyuSqG/1Eb+DdJxNT2If7bYPZSKswZdekhkPf7kDtd2A+yW5e4N6Ej92IyNygp60qIatdVchE6ABDEaO+AYIHgQMuYX4HEeph9K0enJ/CpMiqTAUx2hlzPiGJXBaZO7zL8J4saEHABr6fRe1ldqtkpSRanTrF4TmK/gzHXFChUxpQAZVEvfY5m8JhJhgqxB2S8RjwR9+a/BWROH2nwmP82Y8Lo2UMPeYsyJwHDjtiTioSLSwN/IrpL5nrOy6E2Y53f/zjXsvA7k8gZ+vKpBlosUqIQqDPCVgWqvUBK4MoCm6NA2EjtDhgixvQ86NH6wOVJlGoVOKPc+bt1SlC4MRvPn0YGjAuA71cHeAJ3GHvMNeAtg/yJ9cycHb79oFvH1FqlKffVfsearia5eIsh9QRqKtPOy2eaV7yVdgP9qWYF5tlFbPXN3YFXZhBLys6IA4HUMxfa4uwho9xrHH2eE4LDksanOh3Bp6kreLwnosWz0F1TY+e++ZKY9yEXZ/vi2fy/HzpueLRKbBWNTX+IFdavjipx3F2yZeeM16p3XrWuv/tqEO5iX/mrLdApJ9wBxVIbpVEBQPXsWerhAIRfqDizYnJU5brDYilaGHxiA/yFFV20ViV6y+peW/C+hbcFpO5qZUwDLN+7MKRVFCjts1XQd7hSKYMzI/8A0SfzKfaJLQ4437doX7cy9u2iG4W3HqAexL4+2KzyDwBVPneR6nl1+dJTkfj/iuoUKQJ4YE017kWhsAZll1/Ef/SIuk2OQcC7bIwsLxbZ/d5aurklQ0QOut8WAREBMQXkLc8dQje+wzSYR1w7Un/IoXd8jQ5wAkdfkhGQdbBoDTptUeYVgr6qTRAqdhr4rhn6u+ft+csydiBP1UDPpje+OkmJ8Oa8BW2yTiOyNcOcxgcWB444TlMp9BN6wOVBxmeFCoLDCsoH7A8NEE0P8uU0JHnCRMeqQmS7tUyCZ0WHfBmcCTegrkwrhU0E0OelAqu+M4+Hzxw9+ND1pSSx8YevX9etWH1MSgzND2jbuV8Xq1bezbiLi9lXeVW1toNa+b16dGHd09kZR3X6Cs009+/4Oswo5bWsYff2WvrgXFLXf3+Byuj7hhcqGyM398//YIoRJiVhnfBi1nByN5ln3z0yIDNBq3D81kbKZNSe+3z1cd6ccOilvSH7f7sIDxJBXv4WuYpFMb7gMOScio0ffvUQPCPN2wFH/afz3xql38XqrNlWt+e1Z8HNu3+JrQst7PDVW4q1v3se87QsEsoMqvJxmR8xT9H6YHyt5JvXY60XFF4f7+fK75c42SvibnOidhzIYHnhe/8og7vu4G1/dyjQHhLUeIuJAiUNwm8RnLofFj+r+X+k8WIGxbs8sGU8S/z/VZ8joISK8NVucrUyr/6Sa60XHGYu3CBLA6RK7FZHBWGaK2GdaNzFQYn+l4qkDHfbdYsG4iEQEk+Dqlk6lzPk4l7tbyXsEQdBFPYAdCDzVFK2MFYzoYjCIcQruVHoijEUkugvC3KgibQCgYiSCmKAinwj48aKa/EWukPcagBkzvKNTRMTh22z5NnOCk1j+vZkRmMQ3cCKDPZEh9WcUKHvXAqigL5oWUBPWTIouMZRz+srtfDuvAmwx3tahr7noUL8gVR3Iib/AsXBDKsnmcoE+Y3pEN4y6DH2h8hOvKLJyyw4AkbAK499ejVPwSA96RZQA7Ud96px66ZceMdvf5XsIAKTvzjM3stwxKCC4F9rJ7careGCmbJlUx37Nb7wLr3SFxI+w3d/MW6zz0xrmHBmNVx82bop7FLYKK5CzPxRXypYEYRipzJFPzrx7/8KBIn5iRoEQm+avptstk4RD/UIsmp7tlzGp6Zvi3j2xxWDuZxTMMrpfl8g7rRLw5BmWfGKRfCybsfplbkFCQKlYP93tHTXvkO+8kMjNMKzNsYFocetMvuf3pUSQR32OiHNfuQFGOkgiwMWU0Jln300WkDNxv8TXxmwk6irNQcXnxLv4/oggoDh3PBQnNujuxtjwqCv2HFr4YoBeArOikKXUjzx6hWUcgSGJakiisMjiyvmvM5ZycD+NssCn+QDbDa10P3RKGF4PMZZYgoDhJFpykMYpHCsspR+CINXrRLo9JaugwC2TJvJjam79f3D1gKSf9qLYaGdxOkPw690UIo+lA4/IXDjyghUlnAWasCiJc7UIeyBUgqBvxjGSxLtAnxw+sEWzX2bCztyyJPu+c8/o354HkOW8ZhRTIEKZyfIJOc4a/yesnEZ05+5jwFmavAYUmhlYF5RIFQiY+r1PpL8lRV0mi8UIfASoBeUI23AIkaBE/+ElNxGmdeIz5KPPOPPV8YYH7OEfu/PTQkLNnpxhm9f4dr+pzmQXMExaa35wU/K1kl5VpQEDwelzXo4CeyVztuvmL0s+aPfBS3wTXF6FqlQ+Fxvf4PcRx/q7SIEZPHH3w0HvHtIpILGe6UV2ct2Pn5OHmyaTEvKmcvfjZNth8jJVsNS8LY7C/h8Tkhm669fjyBm00Ze8jXW5bjJap/irRYw2XQoXFOtN7CFrX5TiQBo0Wu8gv6KpbCgLdjrPcb3lv/KFWj8XWLVTdeyiVRVErFf9RyxEoX+D+OSo97fgfZiKtABt/r+wW8Py4s8RFJOec7IM67C12mRYcjmab6bqpVB4VJyz4Do91yfRPC+USR2sHy0NcJC2bzjorserL9Sd//LDtcyA+JrtMUhh59g/8rxEurNNd5t1WcjSiKQEkUBqllw5qfQwLNDJnA09TSMSa0DmQlQQSQBC71qYXUUHUQyZbWh/QqS/h6k0aG1/CsvB8ess+T8W6UrJrjeBNu4hwMJ9pAxcUoBFQAPK8Wq5RCQcAh1gRaFDgEyeshyoXQmqFIVCDcxPkNc7+5Ik7dbaVNVnm4Jm4f4iVqmZzFB8y1chCC36wK0c0gEclfEPSoqnZz9mI0y9SGAK4lVnCh5iI3gC5BOd8586S1sXrf21B1l2aB0e3PcRmg0Fhd2/OcuPmi0GOFk3NwX8+IQptNg2d5zGBvwGxZuz87IYKfPUJtWvXHd6ZHKD4vyfoNa/+AO259XoKWCTnWL4cSfSXaHs06GzhvtywyXzhwm6+WNGnvJdvguhyfjz5nfODMnz13JJa4bIPrJruKw7odT2FQzrA4aOFZfD0OfSHawI23YzIsEksLlVfOaWtW+PfFefZqq2oKKlPo2Cr5tx+yRyR8MYQtunWB75vUij9FvTbYtPBVPPfvRqB3a2prW62w1rNWTeP3IkJ+XI7g8YZ5I6J/jxKpyAoDvuqbRuGhFDSQEofFKSfV2BjpOscpc2OgLZnCMP3hLdbiI/pDCn8UqnngpsUfJUL9R0AhHYrSkNEnSEEXyo3wMYaKhRySwvziETIJSYTTEy/QK5jU0e6+uXu9DaXgGioAHhUFWhFCRSEBpUHmJoj1gUpBFawNmPgsk6F1mHGgeXmnPff6dUfzyvIPGrfga7CKHEW/vh4ae4azsaU/naKB1xdAroJQczhZ3XcO+/c3GCqlw9CjhajsN5kyNQNYlu/GadOCaAJZJnPF+P61wv8LHo/YQ3lwrU45aPTCjngJYyr2W8fjPnkwLoi4fQ4akuh/lx5OEz13z37emWjPltFzyH28boMf/DZOnpa0shKRim7hwVtoq/rRL+1oypk8fvF43LMHmHCR85qUSo7BA/hpETqTfKDx8Jyodi4DRpGfA7wXU6jvjOwy4vgxPqxbWBjwUYskLKWxCeIJ7bieJbMw4MM2LM1HBA+UoaURyMqShKs74R59IipzfiIxtBAtxt2XXGHAZ+/dQnWaNEg30RUGFcyLPXQz4qR6dF82W161fu9FO0A0OtbwWeTsY/IlrAvRXSqZiKww4D3ZaRYG1/MK3ivZLeR78mN37b+z46w/GgIlUxhY3fSGfr+DNPqci0GhMryFFoOwV1t6tDEUCb2KeEdCMKRferl1HO0IJk78DIvQGloVaGcIy2O6FnSlt/xbE7/51B7Rmts+qqqm1OUQ/N/XVoOEk3BhXXC08lCd4JCk2vRBBYIWCGOF4L4MOM7gylLt4yJa7irXuxaYA36NHxgB9syr8ed10CtTUUgP8ZRrgniEdRzxZRbEBM61EOJLer+w6JTvnAeOVpE1DJ/CD+4O5Xxt2Udrj2F6d3ThWNYFbWhbr9qEB6W89I6TEz9MLZ8CpWFB/NLVt+rHHXxz1HxclQYXOXY7cC/OjrpjcSFesMJNpDHKpozAS4TDkqZhDyR1tYkvdoZS+Av0Fr4Huj8Uo2U62rfjlNFLhtFfP24JFf7D6Y/q8Ojcwt7JqPQt6WDNjdUz3zJ/uYTxGmuKxYtyhsWhh9BeMgsD3neRBR3hMRWp5zlOczqbNvL9iW9OQWxc1f4Vylo1PsJkWKyO9EXIHzu1ypsvIgjm5EvKF48VlR7Ol5Ydj3fGN5utKFXlYplns6xjNmUOfxDcPeuJka/kSMkbhfcvR0dElGE6bw4DlPhheZlulaD+12nL2bequ7IjSi4AQnv7PvsCNSz6FAYgI+BWxh1uzga65mFDTcFR0zMG5RryTPEoi59ZrL50XUcIs5kKtY+9BBhq9KP0kKTQoiArIoUrIYnlgfMWcHBYEocniVXCq2qY8+fdn2xZZkeEDxn/5BG4ArsTMkFNAxjiqTEVTSC8TLwmcmHITBpmEdwlj/AYOMPfe/n948Vfwp+bZ/T+AEMx2JOaVTfYCYIjS1hN2RUFoWNGW5gCSmfWjV00ti15i+XhuPeVqzccgtticTHalulQ/k+EkHtly/hcYa9a/RSXu0+utEJxWITttkLpUdMaU8EfcJs3RqWHri0KQ/3YQ7+L+zSSoAAMP/BTy2QoH76ukccvB4lAhhjgKf05X39ReaQVI7V23YWR6XMSqvU5oyst0o/XDnRYDI3TxKTvvROHPh9tOJRvy3zpueLRJfxurvhKicN3/KMYvBa7LiW3MAR+BHxdb2KMNvgb1q2LJPw3K/ODt57EB3Fls7hcAeX06NEvsS+T6sYv3BPvp2YWh1xZJI7DpJqafpI3PX8CLmGwLH9yVorqPAsDOgmK3SsZxiIohRli68tGILK5OztTIf/tDf0XnTDp09+A5mgK85QC9W8mF4fIUKcwqVQGEBMKrYhlujjS6VL4q7dxw1cUFgyFcTI+DuZE//fOrzzz1NHIcofO13G/9z426u7D9134PfSG7yJCLpQGrJ0sFbI9xkMlQdqJCAxhWp/y3E6ZoH3QQQt7uuvXXYHVDGSuB2UOCOTESA5Bk6tYgS+9qhPx1myL0iCNkNT0ZSAdo1NOcNnRh/5vB86IcBMu2s1SWQ9uI1gy6ET5oCdURSU6288kAxQ9SHODoAYPPC+krkhXP5TFdFeHceb3Q8B+JaoAanAAQJ7ner/HxLYRDz07suSrST36wtdXwgKwn1vtPoNrua2pN8oZbTm3fuySFVhl5LJ89JPHLNkDl/dEcwvko2sVHwSvzX5ixLOt4tsQQSsFNnH7M+7WSEOL8DragxMJlRtcKs9PhDrx7F9ohiGsW556vGd/L+JyrurAyWMWvYknYWyEatIkwPTCYpsupYnzePAu/UQ/gHkIKic68nC/A/Z8egCuad84TXODZUvj0OejHeL0x4pBEXuDUQjuqXVYdvPDfOVVQjxWUNwgH5MozCq1eUEy5ZRcYYBs8U7BOpGIZ2RSMZqs9OfmPLdHHCVJsja8NrmxfvMlj+E9WZdVVk6vp5dXnYMlqq+Mii1Wrrxudsxll9OVK+cz+DdJh/N48EkvSpMna/zowBkWte3gqyTPb3wmKz9HyRUGgcT1PoceYox9h4jJq8iuMo5m4XATfNkoVOKEH+ytgIDZrI2kgSxdSg8OSJP4SAsxlzLFmEXk039Sj/yQjnHu5RMmPH/vo49+vbhWnsncBp8KPPeV02FJeM73k6wccxkSaaVBwlAW6NhOTHKm4H31/Y8MXyqRHfzjrccyqIGSpeuMwiKMCEOaKTLN4WCCO68NGQX4PFMFyPgRL3FhvFKbIv0Mk1eGiCGd6PNXLlRYDgISpu6HnfZYJJKpHeirxbDk4eVlmnHpsCq5MGyqKJMzoZmGpsc2V4P/QdgoaxZ6KMd0hGmVu+ROHLt4H6zr9QwuUqRlEA2mUC4vrR/7MpSG4TeaOHPmyiIYRsDettjvHezxcrYppyRnbuLmOpEUBjwXiZ49nMdxx24RqW4oN8H8t9KdFxy7DeUQ+WUZxIJF4DU3Bsr3FwsStUwMgr9iDsqtLaPjhlH3x3wu4zi8Yx6NQ98ZtHi1/TNqPT0TvYdGpRU6WHKMIhgrXw7iFIYjoesrR0q+KPUeUvDaqGAnE9L5jYngoCAVpArU/8WCr2BhABYfsg9Ty4hxXsf9cECHzsK8JM0S0KkZ2brYLCMC+D4/hHqKKgwgPRAdNXX4Vu/WsoycYdzDsHD/LGdapEhFhaG4Czp1iGP05zjahPLi7dsIKWJ/uIthdELdyoMh9Y/ne00Lony/4enCU6YtBBQuGaUVBdJpx1j4Ec8/SpEUROkoWWmhVKcxlgqEJEjR7D33B1c3NV6ApFiTeFh+XDfr0Z2eP2L/136LrvLvMC8FcyoNur2Z0iReVf03kUpitaKOdweNf2YrwHIO8Rbh///buxIAOYpy3d0zuU/yCIIHiQjKUxRyIDyFQA5EUM64JKhoQAyCYDjkENAExYPHnQBCAhEQJMmSBAICajYJIJErh6IiIpAAD0I4cmyu3Z3pft/3V9fs7DXTPdOTbHb/2u3p6qq//qr+qo/vr6s5RwQb0aEhQOQ5dwE7cXzoGS89OZ+Rs0KQJP74hQg1wYU/xiBhXhId6jD1ZkTCOB5IgFQkjAY5QBh1Mi6UQ7g5Bp5uEGucObTsdG5OzZAH8LXO5TjnoSUU/hCsUMTrCvWdvJu3aOhqTKD7ktvFexKVEq+lyHWmjhuzfOPshUPvtiWrGrXyI6jex3CMFt14DtfZ3XMWD/tDvFSFpbNbty5I9ezRgHMz1n1hcV6jnykmYuNR3gvlg1U2AHtc6g/gHig+XADlwS0Rz2BwnUnN88vLOrIXjwb0MMRyz8yuGSLDtWKlakfCaN8fHKc4eGKtjiNfSBbG9eBC8S3iIk7IbZGuHQXgHVK41yCvrGh0LNgyj7cJPp6YnMOogTXFliPuku56AvKMnC1GQpRsMDQ4dY92dbpm8VZMFTxLPJ/xDplTUCYvEu/zK6trhnMuQkkOz7cPmnOdVhVhuBS/lZGUgd1qHgg8au9HuqE8ka+rJO/htsrUUcMTNRgmTgy6OOs2XsMGZfDL0NEwsIOJGGQJJfYkimSjIKKUwZGksS3fbJGmocBhLRTDICR4RHuonvKofggwGINkJh175OLpC/4wMnILk2RYwo+fTl3SJehyYtZv6BUWpoUWLw143eCS3z7ymc0tIisQgL6Mq5FhDzEWcmgSIVYGcOIfn3Y0JEIzQm581gM3/IkUheCIqwmFvKSRxIyRP6MMMozLReUq3kSLKmiVjCFmVOf2UrQwLLRMWNQ3N/m9pkshOvhPEGSnYIL8glJOE1hegNb8Va215peir3ma2U8MexFE/2jUbg3y6t08vq1jyNIUnIm0tdWLDph//OEr+uNSehTVHH8IQeC842/Zel5beZUazuE7+IjbIpRJxv+Wqqd5OrxMF/LbFs3DN/vZh3t6qeIv/+YJix0Hwf2zaoYsKSYWJT5ws+/F6fzBcyXySzpK/jtCBvU/KFa+CZJ2PG2Rt334RShFUNpQirGHLx+eTrnfjZCDs+7dtee39mXzKGmjyOD+GCHvggjCeP0XNhj84Mvovo7dANFW1uAdRUcn4NE2tq30zcPxJsRH4Ia/0jw86vH8moPeR8/kU7hERkRNU1QucF7133k58gIVrepznWhzGJA46/VjY1PkIYKt5lcksO+eu7EXnKQmksNHd1dFElShFggkajA462t/ACa4D4YdgPvhQUgWjw2UH8Ek+sYA4JdCDIlleXALgl6YHgWkoZ+O6YVNhsc44hAYGhkc6iSPWRJaRHMuQ+i6pjPp6+A/1gZUaj9rwb5vfeOYV3+J8eRXokgYkpTBeUipcO40ckDfneDpexZ84t5KlSFf7wlj/nwIwDuJYTnyD7xI+YkxCb/0EBDDEFtbXsabkptfo5d1SOxZPwwxpF/SmODc+Rr5xl+RyVdlo6gI/6z7XLR47FFY155z0fRb3S02WUfez1k07CG8FJ4DZgeWcp6ozmlI/zG09F6C9CGApWhqPQ0I/7NYSvQE3H2/Ry11bV2qZSiumhRuz1knjVr2New5nOizLaWKh2Qd/+xyx+a3mYsfYFiSm6TB4OPRdGFr+T20ZPh7mDfxZ8Qd1lp8KWG4P7c2BEFiPUypeizZGbmG5cmw59gxz+01d+GBr5ZS/naRxnUGxykHhsWujiNfSBa9voMKxTePw829qnlYlONUyj0Cz5eJUWR32XW3hZCrSO/u+BHPYgiR++ko5aBMsR6GpOY0RS0PP5KGOjjEvq2KpXP90nsXrG68KxfgWTrCHpe/z17K+RHl6QkwJCkaCpjhSYMhsXumtXJjuPvg1sLbCsvWJ9dL2FYeHTU8slVWDIBTq2oH4qH0Y5HDXQW2KYSTpNPwRFxgCBeyiAAJC/dCc+gHvTUUl8WiDOmuJbgksFRL5cYxhRBhkeUFTIPCOeb4Ix7/kpWp5L7Lf7nX4lsMqzx8byGd5heeu8tm/F3xTZ5uk/jYq2QZqNusEBXcSL+QdYBgem8khOgQKcFfQnBgl6hlb6eJ5S/QpxEWCpk5CgZznkRz/CnGemKd5owLSS3SEibhrGw6o8DolwCGM1/IAyaZXO25S2+4pfd9Et1ZfoJgcjmnijq/CGT03qrPzIlB96LniAnaC2GUfwMpcpZ5lNSo3a5YYhm9J+5hUeSby+CqmFddM/T+5uFJHfsNwYO4crNJ6cP1/dvqJUNWtqUP7RolD09oXad7NYeOtR4XP3QWJkECj1i9s5ho+dX4ObWfFHjsDIpTGix3uSqOfBHZwUXim0aXOPYar4O/NVVU4MiLNGa+gIK2o/x0l9Pajm0Zg+WP324ZuuNCunTveRzeVoWHB+UVLxtE/7pzXrImXjSOPtwkoIwDvIufm1UzLPLQpTazCrxocxigwHdTNBgq6vxU9HsYFCTY8tbbr1e0QB1YeWIGQ7d08DPwwn5CWMEUZDgLCL8hoMgGfloJJKWG5JOYktiyCCSO5LPmLzw0wYgyxNXoyvlpHDCNGBBGL/Ok0QCL8/pSvj7LMsRxd9758W34GgO/AI1TS8kEZ05yDr+/8Nu7H/jYs3H0lSq78smnTsV5D+X5W0OAiBBvcTI3wODPtn0xxIgVAeSPiFniz7AwHWWJJ/XyD3tzrtwTf+oy2Xi5+QdMznCkDOPkmsiLp2FgZMK8bXaszKwDI6tzORnCEpT3QTIAerK3+z6PYWm9fpVAj8Td94PvVUJ3GzrX+Zn677cRl0gwJ3cDtyVJKMOlu7U+W3d5IV04nwcLxceJw5Py9S3rM4l/tBJ3LluYIzs8b87cHs/ayAWKLegOjpMERt+qOPKFZFGHgwrFN48D8V/VPCzKcaq+IbLBgPo/uup/lvaIojeODD84idfH+ZHTYNnPrRv85yPLbwdBvLfGRs0Gb7Y3qhcPWxZVvi256sUHvoS34kttxccJx/ObvZ8oWrmOPQzRHFhCxQ0GDF0fHK00pB3Bmkf/c3RdVHmVa4oAGXbZ7syTN30OVXG6vRKF9guRp2oQUUSQC5I4kmCGZoGE84dhHMZEEiqEPySp7C7gn9EXFlMyoaFBKmuIqzFOEB/mgTw/vUsqfVaYoqK7mQ98eK7rpJeIkYDVkbicKkj1Jjeb/lFFMw6VH/vFP/cBWf+5McyIlcGa0RYfmQuCCMEfeIZCkDD4ihFnsWQYDQQaBMAzV1dUaJSbcGLNMPmFD/UhVcMgxMnGiuXGGIaJH8f0U3MYzCRUg+q+8/rb+PXnzuewhv5E4LG8nDNH/Y7EhwRfGD9q+SnQQ+ATdXMWDZmBPgYOfaq4w6jFH2AJyTWVzijw/WR6MFznunlLDn6zUHmrnzjoNdxTfy0kEzUOkykv4upLUeWjymGeWCyDAXr3/VC6X6Tx8VHLkC9XNXL5sSeNXn5BJUgs88EzZ1B+fsX8eEOtLiYTLX4KX14fiyZrpLL1/qo48lZWeo6CYL09LrLv5fXqPqGITOzonqnUtXgk9Y2RcEklru8Y+TcR5TwsDJEa1SSw0EGCvYlY4OWhQllFicO75eHqxUMfjyJbTAY4RDYYwD12Laav3Hgwj+j3sH6DoSy4EzEYsETX9Xj0pshQyAkN+TfEk70JbH0mASWHoVFgiCz92HBEmaaOTFLEJc5D671Jj2estHKbtExDXdQrBgT1UKfsvSknjH6m8tYtcu/eveekLunu2XSqG770jC3d/ZczFwx8i+WrtEv18DAMzP2QGGTIjOcuG3EBVoIHwmlQ4MD8GXwMThLCGOtI5A2ZJ+bsUZAay0vDL3nbfJhQ7ABUmOx5bLIVpazjRplQNkzDngYplvQ+eLVdXedSW4rOtsc4/a2+mzkByKPVu3QHaD8GUO8eP3rlsvEjl48uXVPrKWctOuAqzEq6pvXYZELxIcZL59QccE8y2gpr2ebWz4dErKFWrWhcu3Xr5kit/bgdyh6WhPvzCQwtmN1KOcoOCjZvWxwbj8D9BVbU+u+yM2+moGr0iiO8lFeN59A1qZ49/z1+1IoJGIDJB1ki7qiDnu6L+2VAHGV+qjTS3jyPqlHH74G8Iw8hxOuwbt6Tw8sxoP/SvAxtH3s38HspbcfHizlp9IqL8B74VpxU4BSPxJGvtGx3Dx9UjLqiGgqDD+yVfZ/bc/ICf4H1l7LHOyWLhoCLS0nbWpqsF3FZVSRG3tuDgw1urZythYGlrG4tXMOiIVD2w/fMb248Hg+DUWSLuDjkTxgi8881IePRmDukjLUHEC5RTEujIiT7oKikttbIMNIUpXC4oWlIJkBLSmM4UIedMYAy7eK6DT9jvpV2v76v99+8tDsD3JoE+LVutX3QmlJ5d+yRS/cGZJNIyokVz5/gikEGP4k/m9BoZDEUUmGhGA4vxEn8JZ3ooCznNNBQIM7GUVRqjfpCv/VZRawbk19OMaJMSl4bskmmJqV4RRsVUrv/86tv6V3OC9Fq22n31QuHv+5ngyrgmCn7JFxnCMbILcSE6EfGjnz+IOhrrNAylc9ZOOQi1NhvylTTanIYC7/AcrO/bDWyAoELag5+Bxfgk+WoxjciJi946pDaKDqymbINBk6srtiwPTPBPIg1bhrPiv5YfvfREw99fo8oGESRqRq5bBieQvNw0RpSze+BeO5vxo0+bjlWBvtSFB3FZPr2SO1ZTCY/Htf8BtyjG/LDSvWn4rSKIhM8XV/HLnx4lpRr5MU3iDneZfOrRjzz8ZJyyks0bvTy8/Fu+FVeUDSv374MBnCNsdEKLlLr3vU3PhFDvqBotuaVpXhHvl9QqEAk6nMmhpT+s4BIvKgYPQyo+4obDDi/QZFPoMRhfZH1d3BByyBLOs2qqoAP81xrYx7HNPoQkCOkpKEgpzxma7cYA/QLkSWfDAmnLQnihOQK2QSJFdJr1UIXdQixbSTC1M3mbdlT1EtNPG7M0s+aVJX9xQSnH7spdz1WUf/htEfdusrmZrSnfec6+NAwD+zsedtKwJ4YEyeuiiRkHsIGI4OnwR6/TIs4ynATyEUnNRus8+cuSK8D6wOC1JeXpSmY/ZUIk7fN30QhtzAOHvpf8dO9brDJOvNeuo0D97ykMMB9dVSXVPppfO/hLfQ63DFu5LITOYytVP2cIzFu1PIvg7qU1RPSav6BMxXGwmWtxlUwEB+LLHlYEu6YF9f6G26PWjyZFF3i8pjMA8tPzyg0sTpqOQrJNTiZKYXiW41z3UFduqWeHnf4soNbjY8RiI9QnY7PmS/CI6J382S4nvfHI+cPWBL3sbGjl32ueXys45Q3OJZ8ksMZPGe75r1lfXY+Hu2RjFpigif7QK9Lt8ewQtqYWBiFwvyCNhZimI33w7WoR75eIjvcU4+Usxxp5IwiCvJbAjiFIyOK06p7OMkPavIbKzBYSupxAZZb6uuyk6OWPZKcn40+JMmrbA8D50+B3nw0UrkhhCGoq6PKqlxLBNItg6KHDOxeey4eQp+QZVGRTFr4ZS9t1lju1OzlaYGnhpBG3E24iOFnPvghcUSN0ytkn2mE5FKQkvLwgpfklHJsEecIgsa0TC4t6QgjgeX3GkBzkcbHinIOiehobBV10+/r+97ZE2pPuOnOPksqmlGofOyYv4wBOsfwWcyeFvNHOE2PAY0BImcMAMZaQyqUJLzELYcwDqiHBgDTYs8eH5GQymJNyBG1wsNf1oEJFVFJTzVGVuoLftEj6o28xIssjpGVF7gX3Dht+xhZprTt+5ffVRg3ZsVQ1MapSZUUcO8OXae5qdRpPbv3aoDx8CTq7wVUy1pcA+/gXl0Lo3etk8KQqPp0Ku1hObyUsytqDy1EAb7w7e4F2UNQu/uhznhxJepwid0xu+aAcxNVGlHZ1jp/Xo/u3lRekhGT5MTwAro4LjnAVf8AMiqll2Ddlqx/eS7zCnmwTOoK9Ew9iPv3uDhZAL490av1xEmjVvw88LI3xG2NH3/4isG45qbjAXJEsXyB35Fd3NQRuE/u8n33x1j+9/+KpWkej2t7UJwKx/WxurmOUo8xR2cQRmJGd2W2jMrXxsesgGEc/ZmC8/0k3gV/QmPDk3hm/2TWwuLf++DSo1179vwBTu0c5NU3+gnmJH0nk0ls+ExOaxkez+t/FJ4M3SOryCY3HMnmiVXqFqRcj3PTYjnwpmsxlO3tWImKCWdSH+A+jegq28MwwOv3ETx3IpcG80FWRSy4irWCQMkGw/dOqd0NLxS0BoJ24OknHDLMgO9dhJi3L54cJI5CXMN48k9+lyEIyb+8p0EshZdCNvRAB2LAauWrztQGv5BQ6DFEmIaDCSf55UfgaCyQz5gvQbNY/qgTj1h6wrw/fYFjlSvqtpexUFU1JxVscG8wuBnDgCcmRJ+/IPtyDEzIyMUIkLBGnidpIcs4Q+gb9YghwBoM8bZGhMEe+ti7QM1IK9UltS1B4Q8rI++YfjkOA6Wiw/jAqcFE58RWj8nLdaf2blz19pn9Bu3BGfTfTPxEzFjcUaj9UUY3rxleKaGTQSDmGWxqLKw3G5/4Prhvds2DE6GWj43t7hY8NfQtEM+luEhjjdvGM2gxv6MRt8C4Zzi+ObbBANIwhd9ziJtfKfIY9jQFoxOPRVnjVT6uLVxLUwIndR5ap2/1fHfBGn/9s20ZVZjMPMDr0eNE5DIOj5uRyC7yyx/nhazcU/E4Gg5//N4G1xkcC5vAXRVLvoAw3mqDmj4kCwgzKoHeDYyrv94LUqfgOR7rvY9r4FCUdTF6df6OcryEd+trKP+reAm/4QcpfJk82BUPj0+i4Wc0buADcMHEu2byTh3vnrtmLznw73lBO94bZzgSVnda9/57f0i60Js21f+xb5/u9QBWns4R9a/dtm3T1RFlI4u9m9qwbndnl0jyKG9FJz2nAmdwpIKEQl5DckZ/nHw7imysB0f+SXfxnJ+D8nPSmDy25VXPD7IhwBB/PjXwKOGB3UIFhnhyrDyNBkTDWGCjNEkLyWrjh8XYWk49NAwYx9xM7wH3WKcZx8iF6fHEkp4FhBMQmkAAACRsSURBVPGr0eLwJqFeJLz2qKMeeeTRRzvGclr+xkFn4qQ+YxDmLzcaSUQce5xzjtzjmKEmEDjRQMCf0EPIizMgU8qkRzhlKIsfCTOC4W8oT2DFSz3yb2qIUpI/w6g0rDmR4XFoaKBy0NUa7JBWZZaqPTtZ+u0/zimYMPgCDDqO6c/x+fZc7thlC4KG7JqXJ2Aya3jTxtaQTALfwUfcnMgGA+4x/GV/WErm2YUvP5kavc/7uDmij+8Ngn+szW64pZT8SknDYU8Yf46vrXtnlJIeT41+2C4Gphd/yN1lE3osuLTnu7j91+M5xSFxH0YDzx54fnwkLoHNLw8rwc0GJQ3hQ1kG5esq5kfj0+piMpHjXW9wZFkIAqey80aPD1ZQWzENz+FS8doPafeT94l54Duy0gn9dNiFPnMc8xf31Ca807GIR/txGPLCnoWvRC0R6ulPlfhS9qPPHLwRjRpLgPCXIpclCK6IOrcqqk7K0fjHcLONKEvRHiTwv+jPuDiFCGXRqBHrHt6yObkPL5ZQ3J0+SUkk5KwJmw4ALz+txdkLucTjRFgi97ikzA/2JP98nPBxgz1Zbejk3StpWBzEguhLq7cVCMmrrPST1wBlWrhDYgtZOcYVxFWVmLlQZSG9zsd7ZAecn1O3E3uqjlw6AMW/gueXa/nHmcr5hkScOOXi4Cem5JuCCA0q+Ig5HeuChoZYepCxw5sYJ/USVpMxHsK5JBBvahBQGo567JZ/LJHy0sv7oXb31qm39mlfrUlhWdvLDmP6/xcToY8BWhvaS5kSLQdbpHff5/pEdZagzPey88QIiJgWd829GGe9PKJ4EzGOSUbAw00Cixzgg2HnttVKXyRpydH+mv/8ANfdUyUrCBPikdAbz4svYDsOz4dv4ylxIraD4R+EsJIbragez68LZy0eWlNSGQNncKx0fnLDGXD+sYhOUt9/2FK3eTIewm/FOu/tIAximUEPSFUpQ8sqWbzdvL74SnbLuTRt5hk4lRvJ4LuRezPxLPv3O9n1MPgr46D/g2iaYzSKRFPYVCrGPYxn2bvtaanepieycxyRTcZ2nhfcAN4Jfo7HHjuFsTNMkCQQDJMt/tK0b1Sb0NBcgLCQWWtA4FiIPh79ooPJhcQao0GMBFHD9CTClKMO7PlPg0CO2bKOxPxnHvInJoOJd9xLTzwyuVU8pEg74Md3UlfgHAdwqJYxmAzhJzZy/gQlPHcpHvCw+Fh5e0yMACD0wBAQXEVYUps6CpezRZzUnsUXe/5JetEBf9iVwwoQVaZ6pAj22Ax9YvnErcumE56MZTV3sP2cxUMeyWSyBwPblzvYqcnp4No7C9+O+NmOPDeuUIVL+ZlIZcCwAzRrYzhm6Q7dKRyWFMnhvn6AX9uOJJygUPU/TqrfGtSNxS39ZoJqk1MVODNnLTygZGMT192gWIVJcPwz6jRW3ninrYpV1jaE2eIMa3Uint80WtuNwxvme9U1wx5rNwUKC4J35tioZSKmW/xMZFIfVa+Va3D8yLox2OOSyjYwRFtaFe/+PsOGPd/FnkPSe7CX6PdRAsP6ki7/zqYvtsFw9mm1Y0EUDxOyKATSkEyyRJJOQzwBg+GtQh5JFE2cIfdCN5HMhHFokiH2svoODQmqFFIKJSDGxijAQnQhujKGniSXmVAP0ssvexe48ZiGBKKtcYI9VtwI4i/vFubZHnZVRz39aZzr90j8SfJJ2bmJIcBeGZy7rGYkeBACgwP3xEFghbzgTsQknBVFLQxvxUCgnPwZLOE1K1ShTu14L1PnRi+UNEJFb95hWFkigqFIk2++ue/7jcLqK4TA3CXD/7Ut43we984fC8nttHGedzlWx9mhw9MwlBGTQos7PJI4off14pJtS2xdn/0jSOPWtiVMDO7ZuoybuaCYXKXiuexsQ9Y/IUpZK1WG1vTiPvjdrJoHvttaXJSwY4Y93xNyu0WRtTL1bna19Zez58RgPDN7RNWBa6C+etEDiU1crV445Pd4vX5HXrFRC1FBOZTjp7Nqht5RwSxKUi1E13WPjZw4cJ6q5ByjeYuGrgYv4tC+gg736lL01FSup0Nyj/7xtr36YAGNyrnBUVWDiiRy/0bNryPKgVHGcWjncB2Mp2YrsjB1ww+ll4HMMKSkQhpBZuWJxLDQQURIKik9ySyirAylSEzzewdsMhoc/PibkeAePsmDRDg8hk4h0MiTeZBEy7FoNTIYqHTK2C/JmvSiY2f7waJPnOicFgMp77yNQSW1Ys4W5y5hNLZy5886M7gzjFgSexpkHK5kcZcqDIGhvNGNFKwv6TkykblaNdBCjuHMAzts3NMw5K89Fo/k7fxzwB69f80U6qIj8MCSIev9hS8fjWr7HmBtn62+0U+npaTrXoc5G99uGbF9QoKGhnnFcsI1/e7G2m2cU1KWC7vGixp/uEevxapFr5aVWZmJ5y4Z+jy+NXEozr0sI6nMYuQlD+bgPvhWOfNeuvZx9sxTWNSLe27T/JqDEmng6Nqj56CiGTYRIO7JzvHBUMe78GwuaS5Dk6KVcYA3Qx1WZzsbq6NNLkNNxZLu1T91OJTvEjUDcJHIvYZRdbaQC4IFLcKaBWBmaElzq5qpKXiI93vEIUkyGHrXgsrKiMQzKfK95Je50lgZxewwScECo7tJE2u/iAtlH2GD8OCGN47EU4ghiCXCZRIyyWVoSJgwMEjKiCyT0QgwxN4SWSGW+OHHw6TVHISVeRliSy+LizT4ozZ7zL3oYDhayenkGOG51nfEMRRluxGFYPKdylV9+bljcTZHAB028cv50U9scV6yCS4k9uKIo5Ez8cQFcjQisLNxFjvqkn9JY/E3eqV2pd7MsaSnN3RSBPpzZTERRloiGGn+cV34aee8KVPcjJHS3zgIcPw7XrC3bVj91t5YNWcSqmVNnPTtWRaXDy/nOzC577gdUc7qJw56DTfI84XyBt5XcAJiIZmocbgVChIMPPf+b/27a38RVV8l5aoXD1vm1wXDUaYllcynqO4g+OWshQ+eHM4DKSreloCXcge3FddaON5Cq1sLLykscAbHSlehoRSza4bwXfgN1On6WOVJQBh5vuL4mS/AcLk5AXUVUYFmtLFxFGfr6wrez3F0tSWLhr2CBgPe1fPwkba/tJU+ufBoQ5KYn++mKtTDMIUE52NRz8n19SvPUbFqS86yy7bim4Rj3epPMMCOVw8b/eUtD2aOPWNh8wnDpD90eDOa1mlkJ6zAZEs5PDhAJXnMxGaDBqx45JzuBqkRuCJGYPiNbBjGMgL5jAh8bwRY5wissmHiHQ97fwRWbBgB/SOcLOSwwWAZgYtkhOenRkDfCAzYGZF2vAsnHL6kmy3azrCvqvoHPs7mXctegFxPANESg8pgRwzFeBDwWRc4Flx5hoaJ4decrsThiHaTVBrrIMSeYblwI28mUVMHVbEuRaXoMhLm2MabPVUjFpvtjWICpH5o2i29i7asinL9aRMBrqI0p2bo1C3rM5/A/XIRbqREWj/bzDB+xDpcig9jQ5VHd7haUrguZ2EVjsOjp0pQssBH3HAuL63Nrr8tqdw2+9mHAU+hseQXV2LFlVLLX/3k0HcxkfIILE/HeQN4pG4/B5w2YKnXcbNqhlyaRGu756QGxSp9gq2TeCrGy9upHNHBtxV+5zY0fA7v4cWx8ChRmNc78rpz46a6oaUuGlBi1jGTTQGj8Y6PnAhDhUyDQ+QUJQnCyEODRvB2a4mBayZTH1zSWlziYUGwLqpOGF4VMRiqRh2/B+6lrlHL4bjZVZFlVbBVBOKtUOG67wpZFFJKfZYughPgn4cyEZr+cOMunzKQRKJl1BBJIbmIFn0kliS5wjAemDl/93Y3ppGnskNcbf0kALY3e0vohIiLL5zHIWHW6GIHhDEWBHsganDlnoKQo0EglWXqT+JFd3gssUaGcXQ2TyMRarZGIgKNbrtngCRr8gMd9YGbuqBJoB6UhUA4tOVqfL351u49ek/yAudUYL9XWUrLSYwXJybc3bR1Q/Ze+VjU6BVn4WKI14qIjyRhaeUFVSOXjWTLdjnFiZs262fnprxUq3Od8GRKdCIhxzvDMPozynhY83Iir6dADu5tHr6jj8OJlOePPfz56elU6nJca+PxZDHdupUqXBDc42cbLqxe8vnketNcZ3Cc4uIVtTqOfCHZwAsGAbNCIk3i8Lhe1SQg4YNZT3z+DagcjaVvv47n+Lm4X4cnnAU5wDZc0zP9hvprtgexLrf840cf80VU0Yei6kGTW8V7F8Ky8OXLFdZazN/BFXXb3CeGbJ+FMbhKUsRLOHD58c/kHRqMB7dKNNrICivNJXYPt5FFhw82bDDiaW4Lei7BA2UD2SH+pa64t/wzp0YMAF7X4SbyEGTrNMJIPuVPyCiKkK/EdeqyvlvxMXi5srZzz8mjX/gQsMLXXWkEmD/65Zi4ST3QzDJ+mWuAeCLNSGss8EhkEGaGe5k4Y4QgfViJplfC6BNjAWrFhKPGsKdIsmJ2zJt6Ud9S5eaQIRBhqvz6RzCGg029rfv2eaDlytI5PFz9ZM7CA66cVXPAJwI/szfq5PvYHkS91FYYAX5M5VnU+RVZ3zkILcD7z1k0ZIZdvg6k9xaMU0arcDyHa6tPyvMeAzHdN17K8qSrlwz7D67blc21AMsnMHwicVKAtpPWdPp+1kcjQft1nISPuv1mpt75b9T/XbjT65IsLfS9hu/qXNUQZPfHNXVKosYCCxoE8YycBEk7nrHxGuoqNCSpWX0FNFDR43AglnE+BADNwX2woZlMvEN8YwU6nsJiApPrtm4eBP3f3xmMBZ4kPv/6uTgnm3EbWruP46iILIv5RA81F+Zzvm7rlp82D6/Use9Fn/QMMlBfkXJgCEocvXVbt62KI6+yLREIKV/LiLZCzp24+TIQgCvJBUkUzd5Kk3jCjw4EieOH3HBoyKh4TDzpJOJMWtuzTd7BoUjZq2bO3W37dKvZYrfj/bijV94OnL5jWvqNfUezgc62+hvjgYYX//OGIoF1yR/FaZzBKLDGGo9NnNHJlGJciBWAOMqHV4fkQ92iR7I2fhSMYdKrZPdSLiNDA8Okoe7gL3633iOnTXMTJRZhTrprAwGu9LFPf/dgtPIciVoYgyobjKF9u8If62HbqD54C7X6Im7yF3E9Pb0lm/1DlJVB0Hp5Fa6jixr1RPPhKfGG72QOKXdVomi5GSms1nQZrukrbRo8lviwOgiE5zkbltS+asQzH0917fZqvj7kdwfmqZyeH9be/fhicw+nZ49DsEDFKDzIR+PZMTT2NRYEq3FtzcWrYTZWeYERqm7HIjDFGzv6mP0wjPcQ1OcXUZZB2Abgvt8FxwPwyO+Kd3YG9/UHuEXeR/h7uE/eR8vv333PeXzrOn+pbTjYsefRsXLnveb17PE+cM+ttAUW9WM2GHWsM9WzaW8IkALGchMmBN37ddn8Il5qg8n4sYezhoI9RhBfsYzjnoZDKCfH5sfxaTTQhYJ4Wazx6xs+OXPBwEq3ipp82/nvuCP/OhS8/TmgBPZOEk+kuQ+rjaQezg5VEjFI0An5D/1MyHRWzsyDaNRjlmKFjOhrTG8Iv2Qa6qRi8VKlGApSFJnMwiiUlOGUye3d92A33L4h0+uKO+90t5nU+ruDEXBPGP3MAC+bGtgl5Q5EK/dAx0sNxGDB3TBPqR/u1joYeLUw9Gu5932v1vOzb/vp4EUQ95JbHfHl4FtxjZ0R99zxeHjJr/cP5Rj6uGlLkWevRpd0GkaRdcF9aHn9uj1Keg9jaiXu6f2pF9hvqN+y5ZPzl35xbdL5bE99VWOe7+dkUh/HhJT/crxgV7TY7oqT2xXn2QftFusxLvUdGJ1rcD2swRj6Ndn3V73D7z5szzJqXuUhcNTej3STL9KXp0ZTl4DAuNErF+A9e4xJGry1eV12HzXOSgBSk8RCgNQutpv03dqxIPf3h1aA5fvYQx04Y4ueB7zxaRM0xiNLHPNHZEk1aTz4/qkz5u1yJ2PUOc74o//2BJj3ocSChF/2uVWQ8gg/2bk4fofB+GkimOFJkkrSSwyMAonDHugjMlxJiseoJOQzDtvfUjjMYPNSrDnHkeMG9OOHn8PgPoO4VH33wEE7R7rBCRp4HMan01De0LD1+jv6RV5+jfmo68gITPHGjznuHlzNJ8c9S1ybS9DCPzJuulLlx41Z+QLul/1w8de5mWDfWUuGrCpVV7F0mMcwBZhMphyGb1wwu2bodcXSaLwioAh0XgTQC3o6ekFnEAFwp+/OXjTk9s6Lhp759kIgXUpGN87oM/fc72563Hfdw/CGgwpDUoWAwssjGyqGQBjPFmjaFI2RbNVm7wSIqus+P31e/7tKKU9HTDP+qBfGAclDxQAAmMYQAHgCYHgchrtOOLokz1hAAmsAmJ6F0ECgsSBxqATTC2ENDzmeP+P+/nM6Ip56Tu0BgSn+y+u++u29+6euj18at+Sejfh5yUv4fryQ98NNNLWSxgLLls04D6TSzmR4//Wf9f60UsqraRQBRaDzINDQkP19l65psIHgn/6il3/Tec5cz3RHIlCSwcACZz2HK7IsB82UASngrtIGbtqjhZOC20pbNjoOwnkKJLQkuWwsZwK7gx/TV7gSUBhq4jrrb1XVGz28zRv/l2BIz4J0LhjQDMk34QYsYwAQK/iMQy8E+xHomJ71QMAllOBLVGNPgwg6bl02cHSyuQFDfyuEwLJlwxuw7FHicwGSLq7rZ+biG4nn1GWdin8HoXrJkJXjR69YnXX884hP0uei+hQBRaBjITDvyeFv45nxXNZ1flruN0k6FjJ6NpVEQKhoKRlMu633X9FfcLsxENg6DfpKA4Hk1HBVcFRSWhBVLvMpS3CGcmI1UN6IYqLc72bM6ru0lHJ0xDTpbZsuBGh7ypAiEny0I5g/4Cg9DDACBOQQb4Ag8fjgHT96R781JqzRljMWGGf1ieVGBKnHu37m3P5NJl92RGz1nBSBKAjMXnLg3zdns/vy69pR5MuVQV7Dq2uGPVauHk2vCCgCnQOBzeuzI6sXDvl95zhbPcv2gICl9iWV5Zxzagd6de7LsAv60TgwxgNUsaNMbIUwTEgu7QcE8j83CRqyrrsl46Y+dfu9Pd8sqRAdLNE3jnr5o4GXfQmn1ZOnxh4F8Hn8W9tOTAPTrwMsaaAJrpCzk5qtbOPk5lCP1SHpjN5wDsOatLNtn1uqd9vUweDU01EEFAFFQBFQBBQBRUARKBMBy0JLUjNtWp93wUGvkBEv0rtg1dgeBxJVhMlII7BUOpJf9jZwIBPjHOdXaiwIDvITpLJXoWehJ3sXZIMhQBPBgCU9AfBib40wxqJXgcaCMdjMECQaC/kDk2TCufRLIJy9EFhVUySYznF+pMZCYx2oTxFQBBQBRUARUAQUAUWgEYGyDAaq2er3ugm7l4xhAHJLjzEEEEw/SW7oxU5aw4W40qhwX+/R0PsaBKsDAid/9eX/QY/C10nkZROjgOARV9B/zk0gnviTeQliTBiDwpJ/ypkU2Fujg6YDwtnzYyqHe+Iv1f/8jOo+dyFAnSKgCCgCioAioAgoAoqAItACgbINhunT3QaQ1/NFczgmKWcgkJeGTsJSoLUgsWJBIACdDBdeX+1utTKdex+gzT+40fQcGGLPXgCZ/xEaATQUYAUYIyw0AswwpMZeBWMQhBiL6UBdrGZiz54FY3yIsYAonWzeua86PXtFQBFQBBQBRUARUASKIUAmWbabeluvR7Cy52PSYE1+CtfEaLBhHPyC4UkS5wRP3nxPH13C08DlnHLMK9923fSBMlQoJPUCFHoFpFcBZB/IEVnpLTAYoqdBegoQZv9yvRDGSJAYmXAutSIGA3sXWA862TwEX3eKgCKgCCgCioAioAgoAm0ikIjBQO3prH8euCw+E48Dw2Zl+JEhtAwz4eHcBT/lpbCMqjoiUFX1j96Om/qF4AbsjFlAyOAjljQg5A/VRa4P44Cb6W0wPQYIEFmZq2ANDshS2vQwQE56d4wcehi2ZNKpiymhThFQBBQBRUARUAQUAUVAEWgLgcQMhmun9/0XMrmJ44ys0WBHHzFA5jaQ7ZphSzOn3d1rRVuF6mzh3bf1vAx0fg/2JNjeBE5kNrjRSADpl56GcC4Cu3LEiDCGgzUgZAiTDaeucAgS8TTzFWhByNwRBl2lk80JgzpFQBFQBBQBRUARUAQUgUIIJGYwMBO3R8MVMAjeM63gDMgzFOxQJNfZmPWdywoVqjPFnfaV1XvBmDovANHnkCMZdpRvIHCoEY0ADkkCntxyfxZf7Ik1jQpjj1EPq5b4I63E01Cgn5vzek+/99WdCWc9V0VAEVAEFAFFQBFQBBSB0hBI1GC44YZd1oOO/tjB5GayUvJUjoiRPcsnYe5Pb/1tn7WlFbfjpcqk3Ws8L91NjIKQ0NOfP5lZcAOQNryR+Dcuj8peBg+9O9zk422CNXsicrgLeKwL9DNcpJPNO961pGekCCgCioAioAgoAopAJRBI1GBgAd/8oOcMtG//jZNqw0WTQkOBscG/69K9ptKnznFOPeHNURiCdILFApRf/nI9CTQc8CdzEMTqCi0wYwXg1/yFVoGRg7wN5/wRipoeBnrYyxD8+bZZfWbbPHWvCCgCioAioAgoAoqAIqAIFEKADDRxd/5ZtSP9wFvELzqTs9KJ8RA4z/p+sNKEMDDnw9ef4edG12hpSJBvw+1eZMxPToWNaybsh5lItGSCdG4onMuHRbEKqBcu1IOhQvPvnP/hx0xgcr9VVUGqd8PbmMcRfJYGQr4zRgJChOzDYOBJ5gwGBofyYTr2LtCx58F4wl1OjIoYFviu63/+17/rv8xI6K8ioAgoAoqAIqAIKAKKgCJQGIGQUhYWKiX23DM3zwVBPVE4edZoEHKPH/PxNu7NJgTYhosQx+KbSCuTK0OYxhyj+JTnjsYJHeP5h4Tm5ORI4i0vD0LDwRoJbIEPcoYGdFAf0ps/581uGedT0x/68BbRn9DPqce/fSb030J1ZvhRo2JZzQiHBqfQGEChpKdAxMyZWQPByuc0mGjoDT3oWTDOm3nrfb2/k5NTjyKgCCgCioAioAgoAoqAIlAEgbBJuohUCdGZlPdDtJxvE5LLXMBdhb/aPYPgx5B7iWMjuY3PfasBAVyGNTc2nwJhGPWGh1DAoTaM4o/Zk4SbZUQ5RAdt9hzbz7C8zS43yr2RNfpFiUmFz0t4H82k3EuQSWJuwvHr+qOsP82VBctJNeaPyc0yedmU185bsCse5dI0OQ9TNINJHi44HeIRbrUZx7k0sZNQRYqAIqAIKAKKgCKgCCgCnQKBihkMN93U4zU0bJ8jZJ5WgVgGJPPEFaSWvyGZ5Zo+3BhgDQEKWAJMHabHQMbgG1mRZxqmNenYI2DTcS95Mx+u7wrqL5ESYTK2ZFzSI96ScTEgWBZL5D3vwu+c+NYgKEjEuW7DFGS2q+TP5VPDVZGYvxg6NGDshjDIIt/GLYcLzt0YV+b86W/rGPBfeft9vd9J5ARUiSKgCCgCioAioAgoAopAp0GgYgYDEbzh171uB+k+EUT+RZJ3Q+KxY65iQFiia8gwJuSCO0MOznDkkAALcYcM0ghZ5j5ML4Ihl2YaSSfpKWvItgztkbimPQzWQLB7S9yNIZHOI/Kp7o7bNZFlSCeOfW9fz/O+z28mEAgxDLhnWWk4MATny01kcJwvY8+JJ2rL3fS8iR6cnC9l6Aleebe+zw0mQn8VAUVAEVAEFAFFQBFQBBSB6AiQoW4Xd+FZm3bflsn06up4G4plWNtcoEVAc4GEjzOZfTEs6HHMdWhiUGV9//DfzB/4eDm5nf619x+F7fRlq0MMABpT4lgdJPimWoTsM5zRCJIeFHhp0BgXpssloYcxZoiWTYdOjONvvrvvg2Ei3SkCioAioAgoAoqAIqAIKAKRERB6GVm6EwlOHLv+Nt/xJ/KUc8TdCVZ+ZL9dhk2ZYpdZigfIxKoPvgJD5GEzmZmKmZ69DI0u34DImRHSm0ApE5IrTy6hNRzYo2B0yZ4zxp1g4S339juiMQf1KQKKgCKgCCgCioAioAgoAtERsE3V0VN0EskGL3U5Pqi2wRB4snBu3gFv/mPD6aVAMHFi0MUJvGuph0ONuHluWnoLckOLMAxJsiHbx9Y4NInZg/zbYti9GBAMh04O02LPgg3j3nOzvuedV0p5NY0ioAgoAoqAIqAIKAKKgCJABNRgaOM6+E11n3dB0q8QMh7OMeAkaAwHuhI9Bf3aSNZmsLuu9hysGvUpo49GA40CiGPjUCM73MjYCjaexkBoENAoCDebjiOTZKMqbpzXEc7vEAPC827FV7X/3mahNEIRUAQUAUVAEVAEFAFFQBEogoAaDIUA6t/3JpD0lwxpB3E3bmAQpCbbgyj7U6tqB/pu8JMWhD8k+l4Khgg2mZqAsJxBkDMSmDcNhzCOfmxWHyeLSzzDKGLk1jlBdjIO1SkCioAioAgoAoqAIqAIKAIlI6AGQwHopk93G7Bq03m5IUMg4iTjIPdnn1m18VMFkjaJ6uoFV+Ijav0aCT70sHfAGgSQNkTf9iLQGKCBYDeEs+cAx9zsdymskYBAE88hTSkWkrqdyZjo/H6TguiBIqAIKAKKgCKgCCgCioAiEBMBNRiKADZjdr9HMS/gERoKuRZ+1+kSpJzriySV6DPGbdof6U4PSTyJvLB5Ggu5oUg5wyA0EELFOYPCGAC57K3HDDsyRgaHItHAkHkMrvPPXQf3/nWU8qmMIqAIKAKKgCKgCCgCioAiUAgBNRgKoRPGZR0HE4eDhnwCD+Z/1Blf33B0seSuF9yIdOhgMIReSL0YDeD37GVgDUicIf6Sh52HEPYo5HoSaBRIT4ORDb/31mgo2HjPPQ8rOeHDzuoUAUVAEVAEFAFFQBFQBBSB8hBQgyECfjNm9/03uPjUHHG3hD9wr5PVj9rQccY3ar+GJv/DGtPRaODwodBGQDpRZYJxhB6G/M0aEjQS5ENuJp0dqhTaB1BpFWC4kuM8PG1m7z+2USQNVgQUAUVAEVAEFAFFQBFQBGIhoAZDRLgymczP0E+wNn8uAfyfSm3ZfE5rKiZMCLpjGvPVlsvn761RkB/WZE4DLAEPcxHy48VICC0EG94oYOY2ILzB8bPnt1YeDVMEFAFFQBFQBBQBRUARUARKQUANhoioTa8esMFzg8vCOQKNXN0JfnIOVkFqrqZnw6YLHMcfTONAjAz2EoRDjOyxzDugEUAZdhJQhhtD+MM4bvyXnZmjYLolwjCE85h9E/idOvXOfi+LV38UAUVAEVAEFAFFQBFQBBSBBBBQgyEGiAP37jMTBH5FzloQmh70y3YPfp6v5uzxmz8MuR819gQglsSeOxoEiDBbSPpDo8AONeK4IgmikRBukp6BeemtPGWwKuvaunTmZyYX/VUEFAFFQBFQBBQBRUARUASSQUANhhg4YiKxnwqCSeDnppGf5F0IvPedsyZsOsCqCrpmf4XehF65HoOQ9LtpawmgPwC9DblJyzkjIN+AYC5mToP0NlAHeyIYhrTcrDFh5jB4l0+fPmCDLYPuFQFFQBFQBBQBRUARUAQUgSQQUIMhJorT7un7ZJByZ9vvHRjLIcBopeBGqvr+qVsOApP/poTDEDBdBYgQwi+7HNHPRbMWuNFG4EbDIM8g4OcVaBzYhLaHwh4jzcpdPtLzDqZUpwgoAoqAIqAIKAKKgCKgCCSJgNDTJBV2Bl2TvrV1z6yX+RfOtYecr7B5+oLx6DbgEqwHSbj9ka4ARrPHoKXLJTfWAgTYg0A5Uz00Hpq6MNyae25w2I239XmiqYweKQKKgCKgCCgCioAioAgoAuUjoAZDiRiefVrtFPD6ySa5hTHYimNjREhEGB4SfitlDYGcfRCWgR9yo2PPQxPXaFGYngabkHpdt/rGW3ud1EReDxQBRUARUAQUAUVAEVAEFIGEELBt1Amp6zxqutT2vgq8/Q1y99zqR67bo8lkZg4r8ji8yExyFp5PY0CIPo0DO/TI7O0QJSSCDDdRbnfGTMhP7zrbMinvws6Dup6pIqAIKAKKgCKgCCgCisD2RkANhhIRv77a3QpOf75Hli8kHoqsIUADAeF5nD8k/cZwyImLh+mbbtYAyRWNtRRuIiq6JY9f3Hxzj9U5OfUoAoqAIqAIKAKKgCKgCCgCCSOgBkMZgE67vc/9MBauya2GZIk8DQG6nCFAf97GWczhTOaciNgMxqCwsm4KybjZpDkPhyIFs/vv1rPJcq4QU6cIKAKKgCKgCCgCioAioAgkigApqLoyEfjBGZuPw4Tms0H394eqLuHsZjPmSGYwy+QETlEwf154HO59hKIiAoxeCuDxMYwJaXlEOfhlLVX4XbceBsarQeDfc8MtMFbUKQKKgCKgCCgCioAioAgoAoqAIqAIKAKKgCKgCCgCioAioAgoAjsKgf8H7vjav0LMjs4AAAAASUVORK5CYII=;" vertex="1" parent="1">
          <mxGeometry x="476" y="299.5" width="127.43" height="27.12" as="geometry" />
        </mxCell>
        <mxCell id="HQn79kBJnCLvMgGQiG4q-26" value="&lt;font style=&quot;font-size: 16px;&quot;&gt;返回引导性提示&lt;/font&gt;" style="text;html=1;align=center;verticalAlign=middle;whiteSpace=wrap;rounded=0;" vertex="1" parent="1">
          <mxGeometry x="-298" y="269.5" width="118" height="30" as="geometry" />
        </mxCell>
        <mxCell id="HQn79kBJnCLvMgGQiG4q-36" value="" style="shape=image;verticalLabelPosition=bottom;labelBackgroundColor=default;verticalAlign=top;aspect=fixed;imageAspect=0;image=data:image/png,iVBORw0KGgoAAAANSUhEUgAAAMgAAADICAYAAACtWK6eAAAAAXNSR0IArs4c6QAAAERlWElmTU0AKgAAAAgAAYdpAAQAAAABAAAAGgAAAAAAA6ABAAMAAAABAAEAAKACAAQAAAABAAAAyKADAAQAAAABAAAAyAAAAACbWz2VAAAQFElEQVR4Ae2d63XcOBKFLc0Gos1DDzoTbxa2/3j8x3YWMxuJqCPlsROJtHXbhISm+AKq8CIvz7HJJll4fKjLAkB068MHbiRAAiRAAiRAAiRAAiRAAiRAAiRAAiRAAiRAAiRAAiRAAiRAAiRAAiRAAiRAAiRAAiRAAiRAAiRAAiRAAiRAAiRAAiRAAiRAAiRAAiRAAiRAAiRAAiRAAiRAAiRAAiRAAiRAAiRgSeDCMjGmFUfg8+fP3djy169f/fgcP+cnQIEkYu6c/vLyskMWLy8vd9h7W+cdbz3scePFxcUD9s/Pzz2FBBLpNgrEiK0ThDjvtyHJzijprcn0Tjg/fvz4c6sR71smQIEs85m8WoEYJss1PimC+Y5zFMyYzPbPFMhGViNRdBvNarrtFGEolrAmoUBWeEEYQ7epW7m1pcsUy8bWokAmQO1UFBM1PQ342Q2bJPP7JAXiwTmSMLxqvx5izMIu2CuO0wEFIhi+fv36p0zDutmnc0IH/EShvDX6oQVCYbw5wtQRhSJd0Ckwez939K5UaPseWSiHEgiFESqN8/uPKJRDCITCOHd0zSeI5EhLXP7QwGrBFuMMKedf8u9K/nHTE8B7oU+3t7cXj4+PvT65ulPYbQSpOGqcOZU428Oai3gLHbu1ezNf76Vs3/e8YHKXAqlkdqqHs8KBsLd0IojfrRIe8ig6Rb3nscnuBFJQHKflG6X6575oSrzT2atIdiOQQl2qarsYTjC5xSL5fbSMloiQJbddCCRz1KhWFHOOlFsse4omzQvky5cv9+IY3ZxzGJ1vThRz9c71MNmLSJoWSAZx7EYYY8FAKDiXsgu2B5E0K5DE4titMMZCydD96n/+/PlxnG8rn5sUSEJxHEYYYwcdul53cr4bXzP43KxImhNIKnHsbfYl1qkTjlGaFElTAkkhjj30k2PFsGSXSCjNiaSZtVgJxIHu1H+kf/z3kqMc9RrWWWG9ldS/M2RwdXNz0z09Pf3XMM2kSTURQazFwagR5lMJokkzkaT6CEJxhDlzirsTRJNmIknVAjEWB7tUCvVAJNfX1w8Sfa8kGfzTblctLJmvtotlGdbZpdL68rn9kdqmyghypAY4d702Phl3ubqaI0mVApFQjvVV6o2RQ41wNgFrkaD7JrNb/8xmWOjCZaF8Z7Mdxh2z17deoDi2koq/Dz8yB87xKbxZSjpFv/T1VpLzo6oiCLpWUrxP50UM/0RxhDOLtTCMJFUO2qsRiNW4g+KIdfV4O0ORdLV1taroYmFFqcWya4oj3sm1llbdLWlDk/Gntj7OvgqBCBR1/5PicE1abm8lEqtxqAWJ4l0si3EHxWHhCjZpGHW3qhmPFI8g2q4VxWHj2JapDH9CodekqfULTd6+bVGBDNHDL0/w8dAYwXY0SEtg+BZhr8mlhq5WMYFYDMzlKfNR0wC0TUtA2kf7jqSDn6Qt5XLqxQTi/zLgchGnr6JrtaffX5quZdtn0T5oJ00txF49gaPKX2Mca6t958FxRyz5MnbaVdnoKZR6GBaJIMoBWM9xRxlHj81V+6smJaNIdoFoB+YG/drYdqadggCigMK82Fgku0A00QNdq1KhVtG4NBUCQ7v1sTBKRZGsAtFGD3atYt2rDjtl9C8SRbIKRADdxTYVokesLe3qIKCd1SoRRbIKRJqpi20qRo9YcnXZKdsxexTJJhDNCx9Gj7qcXFsaTXvmjiIX2sqG2Mt8+EvI/cO9zfyGUkTdDmsS6QsnXpgRyzVZky2COGcP9Qh5YjyE2vD++gloooh2FUYInawCCZ3FAERlnzWEBe/NSEDTrprJntAqZhVI6Fy4BmIoCN6fn4AiimQbrGcVCJoAyw42gMGvIGrevOZvbeYYTEDzABQfyrKIMbtAQBFgBpH0Y6o4DxHlGoSN8+fn7AT67DkGZJh1FmuuXJgCpiDm6Oz7PNpeHor3MbXMMZtVhUBi4NBmPwQUy+GTvwIo0sXaT9OyJhYEJIJUO5VPgVi0MNNQEXh+fu4jE0g+m0WBRLYMzewIhE7/2+W8nhIFss6Id1RMQLpnSad7KZCKG/9IRQtdZZGLDWexcpFmPqsEYhcwppzuZQRZbTbekJFAnzGvTVn9a9NdBjfxZaABxMaT8L8TNPViGNO9Eg260GoOq3v7Jbu1vOdsk3axhrekGER1XgHwY2IPmnU4Xlo8bIDA8Dtod1LUzi+u+MHZau3BX2Leqs++MJz7DbZx3n65/ONkAtnydjRl39GvJI/LEdjiB76zRo5D3glk5uH8DsSaDyYZg2yBgpIKmHs/9L0rPU80TWD4FZturRLipN+8X7zp1+6fuN7557xIdHbev8cdwwfd8dTePIJsFYdfmDUV+/fyuA0Cc12bpdIjkogvvOuKLdm4a86HPHG4S1v27yKQMzKNIDHiQEEYSVxzHHuPSKIhECkOZNnN5WsmkFhxuIJRJI7EPvYKZ+9iCIj/fIMPxdjCZq6rbyIQrThcpSgSR4L7CAJdhM2qiVogVuJwJaVIHAnuayCgEoi1OBwQisSRaHrft1T6qReXKH+0QFKJw0GlSByJNvcyBvneSsnF12bLGjXNm1ocPlg3feef43EbBHL6iYaI/EjIrA6CI0juSjOSaJq+rO3wl6X6sqVYzh0P4KU7ZpUzZZRbHH4ZGEl8Gm0dl/SbJVJbfGqzQGqo5JYKLQHhtXIEavAfv/ZbfWmTQGqq3NaK+TB4XAeBWvwoxIdWBVJLpfwmDqmgb8fj8gRK+1Oo7ywKpHRllpoztKJLafFaXgKl/CrGZ2ZnsbYuVc6L9i03zm69sWjtqMTsVow4wHVSIDFLlUs0kohEtfqzRJmZ528COUUSKw6UdFIgkmArjpf8l/Xo0OkI5BCJRhyTAplb9psOky5lRhEdv9LWKUWiFQfYvIsgOf/+m1HjdEbpMJlCBFKIxEIcwPFOIIofEi6El9nugYClSKzEAa7vBKKBLd2d7/inSSPCto+woUmFBCxEYikOIHonkLl18Ws8IQz81lVsBIoVltg9rJWN19shoBGJtThA7Z1AcBIZYb91c+LYev/UfZLnXWi+SIc/QDdFs+1zMSKB78Q+3JdoTQoEGW19oo/FoSkkbENEsrWMSwB4rU4CISJJJQ6QmRQILnh/iRYfp7aTMxs+wTtkApEIHCyB6fF5bhsLc+4+nm+XAESy8hA8+aDmobxGB464urlfvROl3kmBHzDOWCpU7Fqb8ZPAz9cVUu75vpS3u4/7/RDAuzn3+mGrD1rVfpNAQjOzEkhovryfBKwJzHaxNBnhKR9jL9GplSUuMdWjTYMEkghEwaFT2NKUBMwJJBGIZozQ2low8xZhglURSCKQoYZ9TE3dYCzGljYkYE0gmUBixyGYpbCuJNMjgVgCyQQSWyCx43c8FPBoaksgmUA04xB2s2wbmanFE0gmkKFIfUzR2M2KoUabFASSvCh0BcWMlLzbuHefQ/YikiSLz0LKwHvzERh85fU9GFZsIHfDpUxRlUkqEJRI3qq/RJVM1mINC9YizWnWCoG1lRcilrM/F52zXqm7WKhLH1mhLtKOZg0RWBMHqiK9Cf+v4GatXXKBSOWilp2AglusmJUIM8tGYGjfbkuGEMmW+6zvSS6QYTarjyl4KSgxZaVNOIHQ9h2iTXhGCovkAlGU7WTKKKIlWKd9K+2aRSCablboU6ZOd2CpfAIQR2S7dn46OY6zCETTzQKEVp42ORpsD3mIOO5aqUcWgQAGo0grLpG2nMPDrovMpY+0izbLJhBtFCkxQIumSsNZApFdq1N67uXhbOIJLmQTCMquiSJizkWMCRwgZ5LarnKJt+pZBaKNIvIEKTIXntOJ9pyXMnpEv0/TMM0qEBRUG0W0TyENLNrGE9C2W4nogdpmF4g2iuApxK/lxjtqCUuIo8XoUUQgyFQZRT6wq1XCzePyxMNMIw7kWip6IO/sEQSZaqOIJNFpQzbKwS09AXmY3WtyEfsiYw9X5iICQebaKIKnEkXimrHOvbZ9II6S0QNUiwkEUUT7dIBIOB6pVxzarlXsn9KwJFJMIKiExdNBRMapX0uPMEjLYtyBh+fQFTcoUXwSRQWCYstT5mN88U+WHd+yKwkam4tzq8YdKI7Fw9OiWsUFYtHVEhAUiYU3GKRh8bDSdr0NqvGaxB+vRwUPHh8f+5ubm06KcKUoxtXt7e0F0lKkQVMFgUEcnSIJTOEXH5j75S8eQVxhpKulns7DoFA7c+LKw30YAQtxSI59LV0rV/sqIggK8/T09A8igBx2+KzYOkYSBb0IUyNxfJBfsfl3RPZJTaqJIKjl8PTotTVmJNES3G5vJY6axh1+7fHErm6zhF5byK4OdmSBMJUrTo0p9i4yiVez2sYdrwWTg6oiiCuYxXgEaSGSDGJzSXNvQGAQB6ZyO4Pkqht3+HWqMoKggF4j+OWNPhax8KdMo+m9GWISBA+etzO6o+EvGusSSWhdZQRBfY3ej7yikzB+zxmuVxxRB4jGluKoddzhw6lmFssvlDvGOw2jmS2XJGe4HImAPaK5vKf6n5hcBZgt3lrzuMMveLVdLL+Q1mEdabfSQD6HEsdHZ191BHEOkSCSIGlGEwd4Yj9Ejb/k0qeJy9GnWnswNRFBXGukeJoh7dYazfFItSfnN7JNRBBX3ESRBMkzmggECOP6+tpq+tY122mPWUSZsfr77GQDH5qKII5nqicc0j9iNBmm1DF124GB9QZx1PDdjph6NSkQVDSlSJD+EYSSWhjg2LI4Tn6A/1rdUosEXCAUfPWz1SfgVNvmEAbybV0cqEOzEQSFx5ZDJMgHQsG+1bVduUQBRrL1Io4qvjL7uzjx/zcvEFQ9c+M3IxZwAR8Rd7LxBdL3t711TXchENdAuaKJyw/72iJLCVE4HnvoUrm6uP2uBIJKlRCJgyn7XgTzgM+5umIQxOXlZSfOeSfZdsi7wLbbP9m9O4E457D6TolLT7F/FQ3SCBnwu2jg8oYQcDyIAYcd/iu57a1LNWa5W4GgooWjyZj12ud+uKFbu7GW63vsUo3Z7logqCyewvKUyzZIHQPe6efddqnG7bV7gbgKNxZNXLFr2+9m+nYr2MMIxAGhUByJoP3hhOHoHE4gruIUiiOxuD+sMByVwwoEACAS7GWwiTEKN4/A3menvKouHh5aID4ZRpTfNCgM3yt2sBbrvDr6TwcVyuG7UnOewwgyQ+YA3S+KYqbt/dMUiE9j5nhnYqEwZtp56jQFMkVl4dzQBSu57mmhdJOXepyViYhdLD+frGHCkxSIAq5bKIgkKpoJO639ClnzpUCwe1MKxLCJR4JBlMHWnf5P81+PZBEdsN/Ttx5Rnxo2CiRTK/ji8bMU53ZC8k9/kOnWB3di/NdeKQRHhnsSIAESIAESIAESIAESIAESIAESIAESIAESIAESIAESIAESIAESIAESIAESIAESIAESIAESIAESIAESIAESIAESIAESIAESIAESIAESIAESIAESsCDwf1ZnPURcTQWcAAAAAElFTkSuQmCC;" vertex="1" parent="1">
          <mxGeometry x="89" y="238.29" width="61.21" height="61.21" as="geometry" />
        </mxCell>
        <mxCell id="HQn79kBJnCLvMgGQiG4q-40" value="" style="endArrow=classic;html=1;rounded=0;entryX=0.75;entryY=1;entryDx=0;entryDy=0;strokeWidth=2;" edge="1" parent="1" target="HQn79kBJnCLvMgGQiG4q-36">
          <mxGeometry width="50" height="50" relative="1" as="geometry">
            <mxPoint x="153" y="344" as="sourcePoint" />
            <mxPoint x="141" y="295.5" as="targetPoint" />
          </mxGeometry>
        </mxCell>
        <mxCell id="HQn79kBJnCLvMgGQiG4q-42" value="&lt;font style=&quot;font-size: 16px;&quot;&gt;是&lt;/font&gt;" style="edgeLabel;html=1;align=center;verticalAlign=middle;resizable=0;points=[];" vertex="1" connectable="0" parent="HQn79kBJnCLvMgGQiG4q-40">
          <mxGeometry x="-0.1739" y="1" relative="1" as="geometry">
            <mxPoint as="offset" />
          </mxGeometry>
        </mxCell>
        <mxCell id="HQn79kBJnCLvMgGQiG4q-41" value="" style="endArrow=classic;html=1;rounded=0;entryX=0.194;entryY=-0.003;entryDx=0;entryDy=0;entryPerimeter=0;exitX=0.25;exitY=1;exitDx=0;exitDy=0;strokeWidth=2;" edge="1" parent="1" source="HQn79kBJnCLvMgGQiG4q-36" target="HQn79kBJnCLvMgGQiG4q-18">
          <mxGeometry width="50" height="50" relative="1" as="geometry">
            <mxPoint x="74" y="322.75" as="sourcePoint" />
            <mxPoint x="124" y="272.75" as="targetPoint" />
          </mxGeometry>
        </mxCell>
        <mxCell id="HQn79kBJnCLvMgGQiG4q-43" value="&lt;font style=&quot;font-size: 16px;&quot;&gt;输入：英文查询 -&amp;gt; 目标：papers -&amp;gt; 输出：英文查询&lt;/font&gt;" style="text;html=1;align=center;verticalAlign=middle;whiteSpace=wrap;rounded=0;" vertex="1" parent="1">
          <mxGeometry x="249" y="325" width="378" height="29" as="geometry" />
        </mxCell>
      </root>
    </mxGraphModel>
  </diagram>
</mxfile>
